<?xml version="1.0" encoding="UTF-8" standalone="no"?>
<!-- Created with Inkscape (http://www.inkscape.org/) -->

<svg
   width="210mm"
   height="297mm"
   viewBox="0 0 210 297"
   version="1.1"
   id="svg1"
   inkscape:version="1.3.1 (9b9bdc1480, 2023-11-25, custom)"
   sodipodi:docname="circulos_variantes.svg"
   xmlns:inkscape="http://www.inkscape.org/namespaces/inkscape"
   xmlns:sodipodi="http://sodipodi.sourceforge.net/DTD/sodipodi-0.dtd"
   xmlns="http://www.w3.org/2000/svg"
   xmlns:svg="http://www.w3.org/2000/svg">
  <sodipodi:namedview
     id="namedview1"
     pagecolor="#ffffff"
     bordercolor="#000000"
     borderopacity="0.25"
     inkscape:showpageshadow="2"
     inkscape:pageopacity="0.0"
     inkscape:pagecheckerboard="0"
     inkscape:deskcolor="#d1d1d1"
     inkscape:document-units="mm"
     inkscape:zoom="0.73049944"
     inkscape:cx="177.27597"
     inkscape:cy="651.60899"
     inkscape:window-width="1680"
     inkscape:window-height="1020"
     inkscape:window-x="1920"
     inkscape:window-y="0"
     inkscape:window-maximized="1"
     inkscape:current-layer="layer1" />
  <defs
     id="defs1" />
  <g
     inkscape:label="Layer 1"
     inkscape:groupmode="layer"
     id="layer1">
    <path
       style="fill:#fdff1a;fill-opacity:1;stroke:#000000;stroke-width:0.919668;stroke-linecap:round;stroke-linejoin:round;stroke-opacity:1"
       id="path1"
       sodipodi:type="arc"
       sodipodi:cx="51.795307"
       sodipodi:cy="117.78223"
       sodipodi:rx="19.29442"
       sodipodi:ry="20.816202"
       sodipodi:start="0"
       sodipodi:end="5.3621811"
       sodipodi:arc-type="slice"
       d="m 71.089727,117.78223 a 19.29442,20.816202 0 0 1 -14.891009,20.26684 19.29442,20.816202 0 0 1 -21.687921,-11.01617 19.29442,20.816202 0 0 1 4.99169,-25.2951 19.29442,20.816202 0 0 1 23.966348,-0.52963 l -11.673528,16.57406 z" />
    <path
       style="fill:#000000;fill-opacity:1;stroke:#000000;stroke-width:0.691986;stroke-linecap:round;stroke-linejoin:round;stroke-opacity:1"
       id="path2"
       sodipodi:type="arc"
       sodipodi:cx="46.551594"
       sodipodi:cy="106.97764"
       sodipodi:rx="2.194746"
       sodipodi:ry="2.3135631"
       sodipodi:start="0"
       sodipodi:end="6.2743033"
       sodipodi:arc-type="arc"
       d="m 48.74634,106.97764 a 2.194746,2.3135631 0 0 1 -2.189873,2.31356 2.194746,2.3135631 0 0 1 -2.199598,-2.30329 2.194746,2.3135631 0 0 1 2.180105,-2.32378 2.194746,2.3135631 0 0 1 2.209279,2.29296"
       sodipodi:open="true" />
    <path
       style="fill:#ffffff;fill-opacity:1;stroke:#ffffff;stroke-width:0.259839;stroke-linecap:round;stroke-linejoin:round;stroke-opacity:1"
       id="path3"
       sodipodi:type="arc"
       sodipodi:cx="45.453415"
       sodipodi:cy="105.87755"
       sodipodi:rx="0.81424302"
       sodipodi:ry="0.87927938"
       sodipodi:start="0"
       sodipodi:end="6.2743033"
       sodipodi:arc-type="arc"
       d="m 46.267658,105.87755 a 0.81424302,0.87927938 0 0 1 -0.812435,0.87928 0.81424302,0.87927938 0 0 1 -0.816043,-0.87538 0.81424302,0.87927938 0 0 1 0.808811,-0.88316 0.81424302,0.87927938 0 0 1 0.819635,0.87145"
       sodipodi:open="true" />
    <path
       style="fill:#cfaae0;fill-opacity:1;stroke:#000000;stroke-width:0.860999;stroke-linecap:round;stroke-linejoin:round;stroke-opacity:1"
       id="path4"
       sodipodi:type="arc"
       sodipodi:cx="-104.11645"
       sodipodi:cy="-116.9593"
       sodipodi:rx="18.369028"
       sodipodi:ry="20.823832"
       sodipodi:start="2.0725664"
       sodipodi:end="1.1239556"
       sodipodi:arc-type="slice"
       d="m -112.95155,-98.702366 a 18.369028,20.823832 0 0 1 -8.89455,-23.703194 18.369028,20.823832 0 0 1 18.23409,-15.36972 18.369028,20.823832 0 0 1 17.462234,16.4814 18.369028,20.823832 0 0 1 -10.029073,23.113864 l -7.937601,-18.779284 z"
       transform="rotate(179.76012)" />
    <path
       style="fill:#cfa9e0;fill-opacity:1;stroke:#000000;stroke-width:0.860999;stroke-linecap:round;stroke-linejoin:round;stroke-opacity:1"
       id="path6"
       d="m -91.487159,-91.561515 a 18.369028,20.823832 0 0 1 -17.989501,-0.966464 l 9.752646,-17.646461 z"
       sodipodi:type="arc"
       sodipodi:arc-type="slice"
       sodipodi:start="1.1058107"
       sodipodi:end="2.1304923"
       sodipodi:ry="20.823832"
       sodipodi:rx="18.369028"
       sodipodi:cy="-110.17444"
       sodipodi:cx="-99.724014"
       transform="rotate(177.20216)" />
    <path
       style="fill:#c7c2c2;fill-opacity:1;stroke:#000000;stroke-width:0.860999;stroke-linecap:round;stroke-linejoin:round;stroke-opacity:1"
       id="path7"
       sodipodi:type="arc"
       sodipodi:cx="159.83362"
       sodipodi:cy="116.02775"
       sodipodi:rx="20.707586"
       sodipodi:ry="21.994759"
       sodipodi:start="1.0962268"
       sodipodi:end="5.1845983"
       sodipodi:arc-type="chord"
       d="m 169.29607,135.59186 a 20.707586,21.994759 0 0 1 -25.53052,-5.68996 20.707586,21.994759 0 0 1 -0.0308,-27.70798 20.707586,21.994759 0 0 1 25.5178,-5.753946 z"
       sodipodi:open="true" />
    <path
       style="fill:none;fill-opacity:1;stroke:#000000;stroke-width:0.860999;stroke-linecap:round;stroke-linejoin:round;stroke-opacity:1"
       id="path8"
       sodipodi:type="arc"
       sodipodi:cx="51.268791"
       sodipodi:cy="166.40375"
       sodipodi:rx="17.683683"
       sodipodi:ry="19.888845"
       sodipodi:start="3.118427"
       sodipodi:end="0.039138789"
       sodipodi:open="true"
       sodipodi:arc-type="arc"
       d="m 33.589853,166.86444 a 17.683683,19.888845 0 0 1 8.800405,-17.66105 17.683683,19.888845 0 0 1 18.000205,0.16169 17.683683,19.888845 0 0 1 8.548469,17.81689" />
    <ellipse
       style="fill:#f0cb99;fill-opacity:1;stroke:#000000;stroke-width:0.860999;stroke-linecap:round;stroke-linejoin:round;stroke-opacity:1"
       id="path9"
       cx="106.66405"
       cy="165.89052"
       rx="17.296831"
       ry="19.329054" />
    <path
       style="fill:#f0cb99;fill-opacity:1;stroke:#000000;stroke-width:0.826214;stroke-linecap:round;stroke-linejoin:round;stroke-opacity:1"
       id="path10"
       sodipodi:type="arc"
       sodipodi:cx="106.75998"
       sodipodi:cy="170.91968"
       sodipodi:rx="9.2296839"
       sodipodi:ry="8.682435"
       sodipodi:start="0"
       sodipodi:end="3.1121571"
       sodipodi:arc-type="arc"
       d="m 115.98966,170.91968 a 9.2296839,8.682435 0 0 1 -9.09385,8.68149 9.2296839,8.682435 0 0 1 -9.361516,-8.42596"
       sodipodi:open="true" />
    <rect
       style="fill:#000000;fill-opacity:1;stroke:#000000;stroke-width:0.860999;stroke-linecap:round;stroke-linejoin:round;stroke-opacity:1"
       id="rect11"
       width="3.8671703"
       height="12.329531"
       x="99.135132"
       y="154.55139"
       ry="1.9335852"
       rx="0" />
    <rect
       style="fill:#000000;fill-opacity:1;stroke:#000000;stroke-width:0.860999;stroke-linecap:round;stroke-linejoin:round;stroke-opacity:1"
       id="rect13"
       width="3.8671703"
       height="12.329531"
       x="109.75074"
       y="154.60733"
       ry="1.9335852"
       rx="0" />
    <rect
       style="fill:#ffffff;fill-opacity:1;stroke:#ffffff;stroke-width:0.860999;stroke-linecap:round;stroke-linejoin:round;stroke-opacity:1"
       id="rect14"
       width="0.8443647"
       height="4.6076641"
       x="99.879219"
       y="155.80577"
       ry="0.42218235" />
    <rect
       style="fill:#ffffff;fill-opacity:1;stroke:#ffffff;stroke-width:0.860999;stroke-linecap:round;stroke-linejoin:round;stroke-opacity:1"
       id="rect15"
       width="0.8443647"
       height="4.6076641"
       x="110.58869"
       y="155.81314"
       ry="0.42218235" />
    <ellipse
       style="fill:#f0cb99;fill-opacity:1;stroke:#000000;stroke-width:0.860999;stroke-linecap:round;stroke-linejoin:round;stroke-opacity:1"
       id="ellipse15"
       cx="156.4743"
       cy="164.8278"
       rx="17.296831"
       ry="19.329054" />
    <path
       style="fill:#f0cb99;fill-opacity:1;stroke:#000000;stroke-width:0.697187;stroke-linecap:round;stroke-linejoin:round;stroke-opacity:1"
       id="path15"
       sodipodi:type="arc"
       sodipodi:cx="-159.38756"
       sodipodi:cy="-174.40271"
       sodipodi:rx="6.4291863"
       sodipodi:ry="8.8753605"
       sodipodi:start="0.31790986"
       sodipodi:end="2.7335243"
       sodipodi:arc-type="arc"
       d="m -153.28053,-171.62843 a 6.4291863,8.8753605 0 0 1 -5.8173,6.09206 6.4291863,8.8753605 0 0 1 -6.19101,-5.34427"
       sodipodi:open="true"
       transform="matrix(-0.99946292,-0.03277008,0.01521052,-0.99988431,0,0)" />
    <rect
       style="fill:#000000;fill-opacity:1;stroke:#000000;stroke-width:0.860999;stroke-linecap:round;stroke-linejoin:round;stroke-opacity:1"
       id="rect16"
       width="3.8671703"
       height="12.329531"
       x="148.94537"
       y="153.48868"
       ry="1.9335852"
       rx="0" />
    <rect
       style="fill:#000000;fill-opacity:1;stroke:#000000;stroke-width:0.860999;stroke-linecap:round;stroke-linejoin:round;stroke-opacity:1"
       id="rect17"
       width="3.8671703"
       height="12.329531"
       x="159.56099"
       y="153.54462"
       ry="1.9335852"
       rx="0" />
    <rect
       style="fill:#ffffff;fill-opacity:1;stroke:#ffffff;stroke-width:0.860999;stroke-linecap:round;stroke-linejoin:round;stroke-opacity:1"
       id="rect18"
       width="0.8443647"
       height="4.6076641"
       x="149.68947"
       y="154.74306"
       ry="0.42218235" />
    <rect
       style="fill:#ffffff;fill-opacity:1;stroke:#ffffff;stroke-width:0.860999;stroke-linecap:round;stroke-linejoin:round;stroke-opacity:1"
       id="rect19"
       width="0.8443647"
       height="4.6076641"
       x="160.39894"
       y="154.75043"
       ry="0.42218235" />
  </g>
</svg>
