<?xml version="1.0" encoding="UTF-8" standalone="no"?>
<!-- Created with Inkscape (http://www.inkscape.org/) -->

<svg
   width="251.51361mm"
   height="78.487732mm"
   viewBox="0 0 251.51361 78.487732"
   version="1.1"
   id="svg1"
   inkscape:version="1.3.1 (9b9bdc1480, 2023-11-25, custom)"
   sodipodi:docname="noche_estrellada.svg"
   xmlns:inkscape="http://www.inkscape.org/namespaces/inkscape"
   xmlns:sodipodi="http://sodipodi.sourceforge.net/DTD/sodipodi-0.dtd"
   xmlns="http://www.w3.org/2000/svg"
   xmlns:svg="http://www.w3.org/2000/svg">
  <sodipodi:namedview
     id="namedview1"
     pagecolor="#ffffff"
     bordercolor="#000000"
     borderopacity="0.25"
     inkscape:showpageshadow="2"
     inkscape:pageopacity="0.0"
     inkscape:pagecheckerboard="0"
     inkscape:deskcolor="#d1d1d1"
     inkscape:document-units="mm"
     inkscape:zoom="1.0330822"
     inkscape:cx="455.43326"
     inkscape:cy="55.174699"
     inkscape:window-width="1680"
     inkscape:window-height="1020"
     inkscape:window-x="1920"
     inkscape:window-y="0"
     inkscape:window-maximized="1"
     inkscape:current-layer="layer1" />
  <defs
     id="defs1" />
  <g
     inkscape:label="Layer 1"
     inkscape:groupmode="layer"
     id="layer1">
    <rect
       style="fill:#000000;fill-opacity:1;stroke:#000000;stroke-width:0.304;stroke-linecap:butt;stroke-linejoin:miter;stroke-miterlimit:4;stroke-dasharray:none;paint-order:fill markers stroke"
       id="rect1"
       width="244.84703"
       height="70.81147"
       x="3.7311933"
       y="4.1170959"
       ry="0" />
    <ellipse
       style="fill:#000000;fill-opacity:1;stroke:#000000;stroke-width:0.304001;stroke-linecap:butt;stroke-linejoin:miter;stroke-miterlimit:0;stroke-dasharray:none;paint-order:fill markers stroke"
       id="path2"
       ry="13.682482"
       rx="12.00691"
       cy="46.776844"
       cx="106.13957" />
    <path
       style="fill:#ffffff;fill-opacity:1;stroke:#000000;stroke-width:0.274094;stroke-linecap:butt;stroke-linejoin:miter;stroke-miterlimit:0;stroke-dasharray:none;paint-order:fill markers stroke"
       id="path3"
       sodipodi:type="arc"
       sodipodi:cx="15.643672"
       sodipodi:cy="17.314709"
       sodipodi:rx="7.2828584"
       sodipodi:ry="7.1950707"
       sodipodi:start="1.0888072"
       sodipodi:end="5.2305024"
       sodipodi:arc-type="arc"
       d="M 19.019587,23.690078 A 7.2828584,7.1950707 0 0 1 9.9452657,21.795258 7.2828584,7.1950707 0 0 1 10.112779,12.633757 7.2828584,7.1950707 0 0 1 19.25045,11.063955"
       sodipodi:open="true"
       transform="rotate(-9.1182276)" />
    <path
       sodipodi:type="star"
       style="fill:#f0ff15;fill-opacity:1;stroke:#000000;stroke-width:0.304001;stroke-linecap:butt;stroke-linejoin:miter;stroke-miterlimit:0;stroke-dasharray:none;paint-order:fill markers stroke"
       id="path4"
       inkscape:flatsided="false"
       sodipodi:sides="5"
       sodipodi:cx="32.024094"
       sodipodi:cy="29.153811"
       sodipodi:r1="7.4605508"
       sodipodi:r2="3.5252202"
       sodipodi:arg1="0.77193315"
       sodipodi:arg2="1.4209138"
       inkscape:rounded="0"
       inkscape:randomized="0"
       d="m 37.370053,34.357707 -4.819567,-1.718199 -3.8236,3.206704 0.144777,-5.114632 -4.231315,-2.645534 4.909043,-1.442818 1.208505,-4.841734 2.889179,4.222922 4.978211,-0.346822 -3.123433,4.052727 z"
       inkscape:transform-center-x="-0.19302166"
       inkscape:transform-center-y="0.047299592"
       transform="matrix(0.75525694,-0.32542863,0.30794136,0.79814622,-12.335901,21.583977)" />
    <path
       sodipodi:type="star"
       style="fill:#f0ff15;fill-opacity:1;stroke:#000000;stroke-width:0.304001;stroke-linecap:butt;stroke-linejoin:miter;stroke-miterlimit:0;stroke-dasharray:none;paint-order:fill markers stroke"
       id="path5"
       inkscape:flatsided="false"
       sodipodi:sides="5"
       sodipodi:cx="32.024094"
       sodipodi:cy="29.153811"
       sodipodi:r1="7.4605508"
       sodipodi:r2="3.5252202"
       sodipodi:arg1="0.77193315"
       sodipodi:arg2="1.4209138"
       inkscape:rounded="0"
       inkscape:randomized="0"
       d="m 37.370053,34.357707 -4.819567,-1.718199 -3.8236,3.206704 0.144777,-5.114632 -4.231315,-2.645534 4.909043,-1.442818 1.208505,-4.841734 2.889179,4.222922 4.978211,-0.346822 -3.123433,4.052727 z"
       inkscape:transform-center-x="-0.44121635"
       inkscape:transform-center-y="-0.68540762"
       transform="matrix(0.81833582,0.08150662,-0.11759366,0.84737064,44.999648,-12.617035)" />
    <path
       sodipodi:type="star"
       style="fill:#f0ff15;fill-opacity:1;stroke:#000000;stroke-width:0.304001;stroke-linecap:butt;stroke-linejoin:miter;stroke-miterlimit:0;stroke-dasharray:none;paint-order:fill markers stroke"
       id="path6"
       inkscape:flatsided="false"
       sodipodi:sides="5"
       sodipodi:cx="32.024094"
       sodipodi:cy="29.153811"
       sodipodi:r1="7.4605508"
       sodipodi:r2="3.5252202"
       sodipodi:arg1="0.77193315"
       sodipodi:arg2="1.4209138"
       inkscape:rounded="0"
       inkscape:randomized="0"
       d="m 37.370053,34.357707 -4.819567,-1.718199 -3.8236,3.206704 0.144777,-5.114632 -4.231315,-2.645534 4.909043,-1.442818 1.208505,-4.841734 2.889179,4.222922 4.978211,-0.346822 -3.123433,4.052727 z"
       inkscape:transform-center-x="-1.0052866"
       inkscape:transform-center-y="0.035855892"
       transform="matrix(0.71688446,0.4029808,-0.44768504,0.72900163,101.27523,19.32765)" />
    <path
       sodipodi:type="star"
       style="fill:#f0ff15;fill-opacity:1;stroke:#000000;stroke-width:0.304001;stroke-linecap:butt;stroke-linejoin:miter;stroke-miterlimit:0;stroke-dasharray:none;paint-order:fill markers stroke"
       id="path7"
       inkscape:flatsided="false"
       sodipodi:sides="5"
       sodipodi:cx="32.024094"
       sodipodi:cy="29.153811"
       sodipodi:r1="7.4605508"
       sodipodi:r2="3.5252202"
       sodipodi:arg1="0.77193315"
       sodipodi:arg2="1.4209138"
       inkscape:rounded="0"
       inkscape:randomized="0"
       d="m 37.370053,34.357707 -4.819567,-1.718199 -3.8236,3.206704 0.144777,-5.114632 -4.231315,-2.645534 4.909043,-1.442818 1.208505,-4.841734 2.889179,4.222922 4.978211,-0.346822 -3.123433,4.052727 z"
       inkscape:transform-center-x="-0.26673762"
       inkscape:transform-center-y="0.11874421"
       transform="matrix(0.73887742,-0.36107756,0.34565563,0.78255189,118.22709,13.406776)" />
    <path
       sodipodi:type="star"
       style="fill:#f0ff15;fill-opacity:1;stroke:#000000;stroke-width:0.304001;stroke-linecap:butt;stroke-linejoin:miter;stroke-miterlimit:0;stroke-dasharray:none;paint-order:fill markers stroke"
       id="path8"
       inkscape:flatsided="false"
       sodipodi:sides="5"
       sodipodi:cx="32.024094"
       sodipodi:cy="29.153811"
       sodipodi:r1="7.4605508"
       sodipodi:r2="3.5252202"
       sodipodi:arg1="0.77193315"
       sodipodi:arg2="1.4209138"
       inkscape:rounded="0"
       inkscape:randomized="0"
       d="m 37.370053,34.357707 -4.819567,-1.718199 -3.8236,3.206704 0.144777,-5.114632 -4.231315,-2.645534 4.909043,-1.442818 1.208505,-4.841734 2.889179,4.222922 4.978211,-0.346822 -3.123433,4.052727 z"
       inkscape:transform-center-x="-0.26673762"
       inkscape:transform-center-y="0.11874421"
       transform="matrix(0.73887742,-0.36107756,0.34565563,0.78255189,157.9421,49.475157)" />
    <path
       sodipodi:type="star"
       style="fill:#f0ff15;fill-opacity:1;stroke:#000000;stroke-width:0.304001;stroke-linecap:butt;stroke-linejoin:miter;stroke-miterlimit:0;stroke-dasharray:none;paint-order:fill markers stroke"
       id="path9"
       inkscape:flatsided="false"
       sodipodi:sides="4"
       sodipodi:cx="32.024094"
       sodipodi:cy="29.153811"
       sodipodi:r1="7.4605508"
       sodipodi:r2="3.5252202"
       sodipodi:arg1="0.77193315"
       sodipodi:arg2="1.5573313"
       inkscape:rounded="0"
       inkscape:randomized="0"
       d="m 37.370053,34.357707 -5.298494,-1.678996 -5.251362,1.821059 1.678996,-5.298494 -1.821058,-5.251362 5.298493,1.678996 5.251362,-1.821059 -1.678996,5.298494 z"
       inkscape:transform-center-x="-0.26673762"
       inkscape:transform-center-y="0.11874421"
       transform="matrix(0.73887742,-0.36107756,0.34565563,0.78255189,162.83421,11.02849)" />
    <path
       sodipodi:type="star"
       style="fill:#f0ff15;fill-opacity:1;stroke:#000000;stroke-width:0.304001;stroke-linecap:butt;stroke-linejoin:miter;stroke-miterlimit:0;stroke-dasharray:none;paint-order:fill markers stroke"
       id="path10"
       inkscape:flatsided="false"
       sodipodi:sides="4"
       sodipodi:cx="32.024094"
       sodipodi:cy="29.153811"
       sodipodi:r1="7.4605508"
       sodipodi:r2="3.5252202"
       sodipodi:arg1="0.77193315"
       sodipodi:arg2="1.5573313"
       inkscape:rounded="0"
       inkscape:randomized="0"
       d="m 37.370053,34.357707 -5.298494,-1.678996 -5.251362,1.821059 1.678996,-5.298494 -1.821058,-5.251362 5.298493,1.678996 5.251362,-1.821059 -1.678996,5.298494 z"
       inkscape:transform-center-x="-0.2780971"
       inkscape:transform-center-y="-0.088947628"
       transform="matrix(0.31102405,-0.7613021,0.77886644,0.35388183,117.8282,71.079183)" />
    <path
       sodipodi:type="star"
       style="fill:#f0ff15;fill-opacity:1;stroke:#000000;stroke-width:0.304001;stroke-linecap:butt;stroke-linejoin:miter;stroke-miterlimit:0;stroke-dasharray:none;paint-order:fill markers stroke"
       id="path11"
       inkscape:flatsided="false"
       sodipodi:sides="4"
       sodipodi:cx="32.024094"
       sodipodi:cy="29.153811"
       sodipodi:r1="7.4605508"
       sodipodi:r2="3.5252202"
       sodipodi:arg1="0.77193315"
       sodipodi:arg2="1.5573313"
       inkscape:rounded="0"
       inkscape:randomized="0"
       d="m 37.370053,34.357707 -5.298494,-1.678996 -5.251362,1.821059 1.678996,-5.298494 -1.821058,-5.251362 5.298493,1.678996 5.251362,-1.821059 -1.678996,5.298494 z"
       inkscape:transform-center-x="-0.2780971"
       inkscape:transform-center-y="-0.088947628"
       transform="matrix(0.31102405,-0.7613021,0.77886644,0.35388183,79.325161,37.633556)" />
    <path
       sodipodi:type="star"
       style="fill:#f0ff15;fill-opacity:1;stroke:#000000;stroke-width:0.304001;stroke-linecap:butt;stroke-linejoin:miter;stroke-miterlimit:0;stroke-dasharray:none;paint-order:fill markers stroke"
       id="path12"
       inkscape:flatsided="false"
       sodipodi:sides="4"
       sodipodi:cx="32.024094"
       sodipodi:cy="29.153811"
       sodipodi:r1="7.4605508"
       sodipodi:r2="3.5252202"
       sodipodi:arg1="0.77193315"
       sodipodi:arg2="1.5573313"
       inkscape:rounded="0"
       inkscape:randomized="0"
       d="m 37.370053,34.357707 -5.298494,-1.678996 -5.251362,1.821059 1.678996,-5.298494 -1.821058,-5.251362 5.298493,1.678996 5.251362,-1.821059 -1.678996,5.298494 z"
       inkscape:transform-center-x="-0.27495321"
       inkscape:transform-center-y="0.098236163"
       transform="matrix(0.70946084,-0.41591125,0.40383574,0.75417636,36.247552,39.328323)" />
    <path
       sodipodi:type="star"
       style="fill:#f0ff15;fill-opacity:1;stroke:#000000;stroke-width:0.304001;stroke-linecap:butt;stroke-linejoin:miter;stroke-miterlimit:0;stroke-dasharray:none;paint-order:fill markers stroke"
       id="path13"
       inkscape:flatsided="false"
       sodipodi:sides="4"
       sodipodi:cx="32.024094"
       sodipodi:cy="29.153811"
       sodipodi:r1="7.4605508"
       sodipodi:r2="3.5252202"
       sodipodi:arg1="0.77193315"
       sodipodi:arg2="1.5573313"
       inkscape:rounded="0"
       inkscape:randomized="0"
       d="m 37.370053,34.357707 -5.298494,-1.678996 -5.251362,1.821059 1.678996,-5.298494 -1.821058,-5.251362 5.298493,1.678996 5.251362,-1.821059 -1.678996,5.298494 z"
       inkscape:transform-center-x="-0.27495321"
       inkscape:transform-center-y="0.098236163"
       transform="matrix(0.70946084,-0.41591125,0.40383574,0.75417636,-5.1675943,50.535769)" />
    <path
       sodipodi:type="star"
       style="fill:#f0ff15;fill-opacity:1;stroke:#000000;stroke-width:0.304001;stroke-linecap:butt;stroke-linejoin:miter;stroke-miterlimit:0;stroke-dasharray:none;paint-order:fill markers stroke"
       id="path14"
       inkscape:flatsided="false"
       sodipodi:sides="9"
       sodipodi:cx="32.024094"
       sodipodi:cy="29.153811"
       sodipodi:r1="7.4605508"
       sodipodi:r2="3.5252202"
       sodipodi:arg1="0.77193315"
       sodipodi:arg2="1.120999"
       inkscape:rounded="0"
       inkscape:randomized="0"
       d="m 37.370053,34.357707 -3.813253,-2.029312 -0.782464,4.248148 -1.616705,-4.005655 -3.330059,2.751312 1.336317,-4.107708 -4.319482,-0.03289 3.664062,-2.287719 -3.287771,-2.801707 4.277351,0.60272 -0.717676,-4.259571 2.88922,3.211138 2.188228,-3.724334 0.149191,4.31703 4.070235,-1.44644 -2.660646,3.402935 4.047735,1.508259 -4.225538,0.896569 z"
       inkscape:transform-center-x="-0.27495321"
       inkscape:transform-center-y="0.098236163"
       transform="matrix(0.70946084,-0.41591125,0.40383574,0.75417636,16.298877,24.437039)" />
    <path
       sodipodi:type="star"
       style="fill:#f0ff15;fill-opacity:1;stroke:#000000;stroke-width:0.304001;stroke-linecap:butt;stroke-linejoin:miter;stroke-miterlimit:0;stroke-dasharray:none;paint-order:fill markers stroke"
       id="path15"
       inkscape:flatsided="false"
       sodipodi:sides="9"
       sodipodi:cx="32.024094"
       sodipodi:cy="29.153811"
       sodipodi:r1="7.4605508"
       sodipodi:r2="3.5252202"
       sodipodi:arg1="0.77193315"
       sodipodi:arg2="1.120999"
       inkscape:rounded="0"
       inkscape:randomized="0"
       d="m 37.370053,34.357707 -3.813253,-2.029312 -0.782464,4.248148 -1.616705,-4.005655 -3.330059,2.751312 1.336317,-4.107708 -4.319482,-0.03289 3.664062,-2.287719 -3.287771,-2.801707 4.277351,0.60272 -0.717676,-4.259571 2.88922,3.211138 2.188228,-3.724334 0.149191,4.31703 4.070235,-1.44644 -2.660646,3.402935 4.047735,1.508259 -4.225538,0.896569 z"
       inkscape:transform-center-x="-0.27495321"
       inkscape:transform-center-y="0.098236163"
       transform="matrix(0.70946084,-0.41591125,0.40383574,0.75417636,16.298877,24.437039)" />
    <path
       sodipodi:type="star"
       style="fill:#f0ff15;fill-opacity:1;stroke:#000000;stroke-width:0.304001;stroke-linecap:butt;stroke-linejoin:miter;stroke-miterlimit:0;stroke-dasharray:none;paint-order:fill markers stroke"
       id="path16"
       inkscape:flatsided="false"
       sodipodi:sides="9"
       sodipodi:cx="32.024094"
       sodipodi:cy="29.153811"
       sodipodi:r1="7.4605508"
       sodipodi:r2="3.5252202"
       sodipodi:arg1="0.77193315"
       sodipodi:arg2="1.120999"
       inkscape:rounded="0"
       inkscape:randomized="0"
       d="m 37.370053,34.357707 -3.813253,-2.029312 -0.782464,4.248148 -1.616705,-4.005655 -3.330059,2.751312 1.336317,-4.107708 -4.319482,-0.03289 3.664062,-2.287719 -3.287771,-2.801707 4.277351,0.60272 -0.717676,-4.259571 2.88922,3.211138 2.188228,-3.724334 0.149191,4.31703 4.070235,-1.44644 -2.660646,3.402935 4.047735,1.508259 -4.225538,0.896569 z"
       inkscape:transform-center-x="-0.27495321"
       inkscape:transform-center-y="0.098236163"
       transform="matrix(0.70946084,-0.41591125,0.40383574,0.75417636,58.991875,27.868409)" />
    <path
       sodipodi:type="star"
       style="fill:#f0ff15;fill-opacity:1;stroke:#000000;stroke-width:0.304001;stroke-linecap:butt;stroke-linejoin:miter;stroke-miterlimit:0;stroke-dasharray:none;paint-order:fill markers stroke"
       id="path17"
       inkscape:flatsided="false"
       sodipodi:sides="9"
       sodipodi:cx="32.024094"
       sodipodi:cy="29.153811"
       sodipodi:r1="7.4605508"
       sodipodi:r2="3.5252202"
       sodipodi:arg1="0.77193315"
       sodipodi:arg2="1.120999"
       inkscape:rounded="0"
       inkscape:randomized="0"
       d="m 37.370053,34.357707 -3.813253,-2.029312 -0.782464,4.248148 -1.616705,-4.005655 -3.330059,2.751312 1.336317,-4.107708 -4.319482,-0.03289 3.664062,-2.287719 -3.287771,-2.801707 4.277351,0.60272 -0.717676,-4.259571 2.88922,3.211138 2.188228,-3.724334 0.149191,4.31703 4.070235,-1.44644 -2.660646,3.402935 4.047735,1.508259 -4.225538,0.896569 z"
       inkscape:transform-center-x="-0.27495321"
       inkscape:transform-center-y="0.098236163"
       transform="matrix(0.70946084,-0.41591125,0.40383574,0.75417636,46.208226,58.774834)" />
    <path
       sodipodi:type="star"
       style="fill:#f0ff15;fill-opacity:1;stroke:#000000;stroke-width:0.304001;stroke-linecap:butt;stroke-linejoin:miter;stroke-miterlimit:0;stroke-dasharray:none;paint-order:fill markers stroke"
       id="path18"
       inkscape:flatsided="false"
       sodipodi:sides="9"
       sodipodi:cx="32.024094"
       sodipodi:cy="29.153811"
       sodipodi:r1="7.4605508"
       sodipodi:r2="3.5252202"
       sodipodi:arg1="0.77193315"
       sodipodi:arg2="1.120999"
       inkscape:rounded="0"
       inkscape:randomized="0"
       d="m 37.370053,34.357707 -3.813253,-2.029312 -0.782464,4.248148 -1.616705,-4.005655 -3.330059,2.751312 1.336317,-4.107708 -4.319482,-0.03289 3.664062,-2.287719 -3.287771,-2.801707 4.277351,0.60272 -0.717676,-4.259571 2.88922,3.211138 2.188228,-3.724334 0.149191,4.31703 4.070235,-1.44644 -2.660646,3.402935 4.047735,1.508259 -4.225538,0.896569 z"
       inkscape:transform-center-x="-0.27495321"
       inkscape:transform-center-y="0.098236163"
       transform="matrix(0.70946084,-0.41591125,0.40383574,0.75417636,102.30819,32.353038)" />
    <path
       sodipodi:type="star"
       style="fill:#f0ff15;fill-opacity:1;stroke:#000000;stroke-width:0.304001;stroke-linecap:butt;stroke-linejoin:miter;stroke-miterlimit:0;stroke-dasharray:none;paint-order:fill markers stroke"
       id="path19"
       inkscape:flatsided="false"
       sodipodi:sides="9"
       sodipodi:cx="32.024094"
       sodipodi:cy="29.153811"
       sodipodi:r1="7.4605508"
       sodipodi:r2="3.5252202"
       sodipodi:arg1="0.77193315"
       sodipodi:arg2="1.120999"
       inkscape:rounded="0"
       inkscape:randomized="0"
       d="m 37.370053,34.357707 -3.813253,-2.029312 -0.782464,4.248148 -1.616705,-4.005655 -3.330059,2.751312 1.336317,-4.107708 -4.319482,-0.03289 3.664062,-2.287719 -3.287771,-2.801707 4.277351,0.60272 -0.717676,-4.259571 2.88922,3.211138 2.188228,-3.724334 0.149191,4.31703 4.070235,-1.44644 -2.660646,3.402935 4.047735,1.508259 -4.225538,0.896569 z"
       inkscape:transform-center-x="-0.27495321"
       inkscape:transform-center-y="0.098236163"
       transform="matrix(0.70946084,-0.41591125,0.40383574,0.75417636,143.08715,36.533524)" />
    <path
       sodipodi:type="star"
       style="fill:#f0ff15;fill-opacity:1;stroke:#000000;stroke-width:0.304001;stroke-linecap:butt;stroke-linejoin:miter;stroke-miterlimit:0;stroke-dasharray:none;paint-order:fill markers stroke"
       id="path20"
       inkscape:flatsided="false"
       sodipodi:sides="9"
       sodipodi:cx="32.024094"
       sodipodi:cy="29.153811"
       sodipodi:r1="7.4605508"
       sodipodi:r2="3.5252202"
       sodipodi:arg1="0.77193315"
       sodipodi:arg2="1.120999"
       inkscape:rounded="0"
       inkscape:randomized="0"
       d="m 37.370053,34.357707 -3.813253,-2.029312 -0.782464,4.248148 -1.616705,-4.005655 -3.330059,2.751312 1.336317,-4.107708 -4.319482,-0.03289 3.664062,-2.287719 -3.287771,-2.801707 4.277351,0.60272 -0.717676,-4.259571 2.88922,3.211138 2.188228,-3.724334 0.149191,4.31703 4.070235,-1.44644 -2.660646,3.402935 4.047735,1.508259 -4.225538,0.896569 z"
       inkscape:transform-center-x="-0.27495321"
       inkscape:transform-center-y="0.098236163"
       transform="matrix(0.70946084,-0.41591125,0.40383574,0.75417636,202.51178,56.306605)" />
    <path
       sodipodi:type="star"
       style="fill:#f0ff15;fill-opacity:1;stroke:#000000;stroke-width:0.304001;stroke-linecap:butt;stroke-linejoin:miter;stroke-miterlimit:0;stroke-dasharray:none;paint-order:fill markers stroke"
       id="path21"
       inkscape:flatsided="false"
       sodipodi:sides="25"
       sodipodi:cx="32.024094"
       sodipodi:cy="29.153811"
       sodipodi:r1="7.4605508"
       sodipodi:r2="3.5252202"
       sodipodi:arg1="0.77193315"
       sodipodi:arg2="0.89759686"
       inkscape:rounded="0"
       inkscape:randomized="0"
       d="m 37.370053,34.357707 -3.148018,-2.447771 1.685908,3.613767 -2.440381,-3.15375 0.734235,3.919502 -1.579406,-3.661567 -0.263573,3.978961 -0.619192,-3.939315 -1.244819,3.788406 0.379929,-3.96954 -2.14785,3.359812 1.355178,-3.750345 -2.915923,2.720109 2.245275,-3.295502 -3.500776,1.909491 2.994293,-2.633591 -3.865664,0.978894 3.555169,-1.806202 -3.987658,-0.01321 3.892661,-0.865321 -3.859093,-1.004487 3.985563,0.12993 -3.488047,-1.932647 3.828038,1.117017 -2.897834,-2.739371 3.429981,2.033918 -2.125539,-3.373971 2.816408,2.82302 -1.219689,-3.796571 2.025868,3.434742 -0.237201,-3.980619 1.108036,3.830646 0.76019,-3.91455 0.120582,3.985857 1.709817,-3.602516 -0.874448,3.890621 2.552009,-3.064122 -1.814534,3.550924 3.233849,-2.333198 -2.640606,2.988109 3.712495,-1.455671 -3.30076,2.237539 3.957871,-0.486678 -3.753513,1.346378 3.954558,0.512894 -3.97042,0.370618 3.702768,1.480239 -3.937852,-0.628429 3.218318,2.354576 -3.657852,-1.587989 z"
       inkscape:transform-center-x="-0.27495321"
       inkscape:transform-center-y="0.098236163"
       transform="matrix(0.70946084,-0.41591125,0.40383574,0.75417636,195.62804,13.599541)" />
    <path
       sodipodi:type="star"
       style="fill:#f0ff15;fill-opacity:1;stroke:#000000;stroke-width:0.304001;stroke-linecap:butt;stroke-linejoin:miter;stroke-miterlimit:0;stroke-dasharray:none;paint-order:fill markers stroke"
       id="path22"
       inkscape:flatsided="false"
       sodipodi:sides="25"
       sodipodi:cx="32.024094"
       sodipodi:cy="29.153811"
       sodipodi:r1="7.4605508"
       sodipodi:r2="3.5252202"
       sodipodi:arg1="0.77193315"
       sodipodi:arg2="0.89759686"
       inkscape:rounded="0"
       inkscape:randomized="0"
       d="m 37.370053,34.357707 -3.148018,-2.447771 1.685908,3.613767 -2.440381,-3.15375 0.734235,3.919502 -1.579406,-3.661567 -0.263573,3.978961 -0.619192,-3.939315 -1.244819,3.788406 0.379929,-3.96954 -2.14785,3.359812 1.355178,-3.750345 -2.915923,2.720109 2.245275,-3.295502 -3.500776,1.909491 2.994293,-2.633591 -3.865664,0.978894 3.555169,-1.806202 -3.987658,-0.01321 3.892661,-0.865321 -3.859093,-1.004487 3.985563,0.12993 -3.488047,-1.932647 3.828038,1.117017 -2.897834,-2.739371 3.429981,2.033918 -2.125539,-3.373971 2.816408,2.82302 -1.219689,-3.796571 2.025868,3.434742 -0.237201,-3.980619 1.108036,3.830646 0.76019,-3.91455 0.120582,3.985857 1.709817,-3.602516 -0.874448,3.890621 2.552009,-3.064122 -1.814534,3.550924 3.233849,-2.333198 -2.640606,2.988109 3.712495,-1.455671 -3.30076,2.237539 3.957871,-0.486678 -3.753513,1.346378 3.954558,0.512894 -3.97042,0.370618 3.702768,1.480239 -3.937852,-0.628429 3.218318,2.354576 -3.657852,-1.587989 z"
       inkscape:transform-center-x="-0.063530789"
       inkscape:transform-center-y="0.024931662"
       transform="matrix(0.16393845,-0.1055561,0.09331622,0.19140601,220.94406,40.811319)" />
    <path
       sodipodi:type="star"
       style="fill:#f0ff15;fill-opacity:1;stroke:#000000;stroke-width:0.304001;stroke-linecap:butt;stroke-linejoin:miter;stroke-miterlimit:0;stroke-dasharray:none;paint-order:fill markers stroke"
       id="path23"
       inkscape:flatsided="false"
       sodipodi:sides="25"
       sodipodi:cx="12.88864"
       sodipodi:cy="47.842922"
       sodipodi:r1="7.4605508"
       sodipodi:r2="3.5252202"
       sodipodi:arg1="0.77193315"
       sodipodi:arg2="0.89759686"
       inkscape:rounded="0"
       inkscape:randomized="0"
       d="m 18.234599,53.046819 -3.148017,-2.447771 1.685908,3.613767 -2.440381,-3.15375 0.734235,3.919502 -1.579406,-3.661567 -0.263573,3.97896 -0.619192,-3.939314 -1.24482,3.788406 0.379929,-3.96954 L 9.5914329,54.535324 10.94661,50.784979 8.0306881,53.505088 10.275963,50.209585 6.7751863,52.119077 9.76948,49.485486 5.9038153,50.464379 9.4589852,48.658178 5.4713266,48.644966 9.3639882,47.779645 5.504895,46.775157 l 3.9855631,0.12993 -3.4880468,-1.932647 3.828037,1.117018 -2.8978337,-2.739372 3.4299814,2.033918 -2.125539,-3.37397 2.816407,2.82302 -1.2196886,-3.796571 2.0258676,3.434742 -0.237201,-3.980619 1.108036,3.830646 0.760191,-3.914551 0.120582,3.985857 1.709817,-3.602516 -0.874448,3.890622 2.552009,-3.064122 -1.814535,3.550924 3.23385,-2.333198 -2.640606,2.988108 3.712494,-1.455671 -3.300759,2.23754 3.957871,-0.486678 -3.753514,1.346378 3.954559,0.512894 -3.97042,0.370618 3.702767,1.480239 -3.937851,-0.628429 3.218318,2.354576 -3.657853,-1.58799 z"
       inkscape:transform-center-x="-0.063530773"
       inkscape:transform-center-y="0.024931699"
       transform="matrix(0.16393845,-0.1055561,0.09331622,0.19140601,220.94406,40.811319)" />
    <path
       sodipodi:type="star"
       style="fill:#f0ff15;fill-opacity:1;stroke:#000000;stroke-width:0.304001;stroke-linecap:butt;stroke-linejoin:miter;stroke-miterlimit:0;stroke-dasharray:none;paint-order:fill markers stroke"
       id="path24"
       inkscape:flatsided="false"
       sodipodi:sides="25"
       sodipodi:cx="-23.627459"
       sodipodi:cy="-4.6328158"
       sodipodi:r1="7.4605508"
       sodipodi:r2="3.5252202"
       sodipodi:arg1="0.77193315"
       sodipodi:arg2="0.89759686"
       inkscape:rounded="0"
       inkscape:randomized="0"
       d="m -18.281499,0.57108072 -3.148018,-2.44777072 1.685908,3.6137667 -2.440381,-3.1537496 0.734235,3.9195018 -1.579406,-3.6615668 -0.263573,3.9789602 -0.619192,-3.9393143 -1.24482,3.7884059 0.379929,-3.9695401 -2.147849,3.3598121 1.355177,-3.7503453 -2.915922,2.720109 2.245275,-3.2955023 -3.500777,1.90949134 2.994294,-2.63359084 -3.865665,0.9788934 3.55517,-1.8062012 -3.987658,-0.013212 3.892661,-0.8653213 -3.859093,-1.0044873 3.985563,0.1299299 -3.488047,-1.9326469 3.828037,1.1170172 -2.897833,-2.7393713 3.429981,2.0339182 -2.125539,-3.3739704 2.816407,2.8230201 -1.219689,-3.7965711 2.025869,3.4347419 -0.237202,-3.9806199 1.108036,3.8306468 0.760191,-3.9145508 0.120582,3.9858573 1.709817,-3.6025163 -0.874448,3.8906218 2.552009,-3.0641218 -1.814535,3.5509236 3.23385,-2.3331981 -2.640606,2.9881087 3.712494,-1.4556708 -3.300759,2.2375397 3.957871,-0.4866783 -3.753514,1.3463779 3.954559,0.512894 -3.97042,0.3706181 3.702767,1.4802392 -3.937851,-0.6284289 3.218318,2.35457568 -3.657853,-1.58798948 z"
       inkscape:transform-center-x="-0.063531054"
       inkscape:transform-center-y="0.024931841"
       transform="matrix(0.16393845,-0.1055561,0.09331622,0.19140601,220.94406,40.811319)" />
    <path
       sodipodi:type="star"
       style="fill:#f0ff15;fill-opacity:1;stroke:#000000;stroke-width:0.304001;stroke-linecap:butt;stroke-linejoin:miter;stroke-miterlimit:0;stroke-dasharray:none;paint-order:fill markers stroke"
       id="path25"
       inkscape:flatsided="false"
       sodipodi:sides="25"
       sodipodi:cx="-69.890324"
       sodipodi:cy="-32.764737"
       sodipodi:r1="7.4605508"
       sodipodi:r2="3.5252202"
       sodipodi:arg1="0.77193315"
       sodipodi:arg2="0.89759686"
       inkscape:rounded="0"
       inkscape:randomized="0"
       d="m -64.544368,-27.56084 -3.148018,-2.44777 1.685908,3.613766 -2.440381,-3.153749 0.734235,3.919502 -1.579406,-3.661567 -0.263573,3.97896 -0.619192,-3.939314 -1.24482,3.788406 0.37993,-3.969541 -2.14785,3.359813 1.355177,-3.750346 -2.915922,2.720109 2.245275,-3.295502 -3.500777,1.909491 2.994294,-2.633591 -3.865665,0.978894 3.55517,-1.806201 -3.987658,-0.01321 3.892661,-0.865322 -3.859093,-1.004487 3.985563,0.12993 -3.488047,-1.932647 3.828037,1.117017 -2.897833,-2.739371 3.429981,2.033918 -2.125539,-3.373971 2.816407,2.823021 -1.219688,-3.796572 2.025868,3.434743 -0.237202,-3.98062 1.108036,3.830646 0.760191,-3.91455 0.120582,3.985857 1.709817,-3.602516 -0.874448,3.890621 2.552009,-3.064122 -1.814534,3.550924 3.233849,-2.333198 -2.640606,2.988109 3.712494,-1.455671 -3.300759,2.23754 3.957871,-0.486679 -3.753513,1.346378 3.954558,0.512894 -3.97042,0.370618 3.702767,1.48024 -3.937851,-0.628429 3.218318,2.354575 -3.657853,-1.587989 z"
       inkscape:transform-center-x="-0.27495321"
       inkscape:transform-center-y="0.098236163"
       transform="matrix(0.70946084,-0.41591125,0.40383574,0.75417636,195.62804,13.599541)" />
    <path
       sodipodi:type="star"
       style="fill:#f0ff15;fill-opacity:1;stroke:#000000;stroke-width:0.304001;stroke-linecap:butt;stroke-linejoin:miter;stroke-miterlimit:0;stroke-dasharray:none;paint-order:fill markers stroke"
       id="path26"
       inkscape:flatsided="false"
       sodipodi:sides="25"
       sodipodi:cx="-69.890327"
       sodipodi:cy="-32.764736"
       sodipodi:r1="7.4605508"
       sodipodi:r2="3.5252202"
       sodipodi:arg1="0.77193315"
       sodipodi:arg2="0.89759686"
       inkscape:rounded="0"
       inkscape:randomized="0"
       d="m -64.544368,-27.56084 -3.148018,-2.44777 1.685908,3.613766 -2.440381,-3.153749 0.734235,3.919502 -1.579406,-3.661567 -0.263573,3.97896 -0.619192,-3.939314 -1.24482,3.788406 0.37993,-3.969541 -2.14785,3.359813 1.355177,-3.750346 -2.915922,2.720109 2.245275,-3.295502 -3.500777,1.909491 2.994294,-2.633591 -3.865665,0.978894 3.55517,-1.806201 -3.987658,-0.01321 3.892661,-0.865322 -3.859093,-1.004487 3.985563,0.12993 -3.488047,-1.932647 3.828037,1.117017 -2.897833,-2.739371 3.429981,2.033918 -2.125539,-3.373971 2.816407,2.823021 -1.219688,-3.796572 2.025868,3.434743 -0.237202,-3.98062 1.108036,3.830646 0.760191,-3.91455 0.120582,3.985857 1.709817,-3.602516 -0.874448,3.890621 2.552009,-3.064122 -1.814534,3.550924 3.233849,-2.333198 -2.640606,2.988109 3.712494,-1.455671 -3.300759,2.23754 3.957871,-0.486679 -3.753513,1.346378 3.954558,0.512894 -3.97042,0.370618 3.702767,1.48024 -3.937851,-0.628429 3.218318,2.354575 -3.657853,-1.587989 z"
       inkscape:transform-center-x="-0.063531274"
       inkscape:transform-center-y="0.02493199"
       transform="matrix(0.16393845,-0.1055561,0.09331622,0.19140601,220.94406,40.811319)" />
  </g>
</svg>
