<?xml version="1.0" encoding="UTF-8" standalone="no"?>
<!-- Created with Inkscape (http://www.inkscape.org/) -->

<svg
   width="190mm"
   height="100mm"
   viewBox="0 0 193.43804 33.73737"
   version="1.1"
   id="svg827"
   inkscape:version="1.1.2 (0a00cf5339, 2022-02-04)"
   sodipodi:docname="manos_superpuestas.svg"
   xmlns:inkscape="http://www.inkscape.org/namespaces/inkscape"
   xmlns:sodipodi="http://sodipodi.sourceforge.net/DTD/sodipodi-0.dtd"
   xmlns="http://www.w3.org/2000/svg"
   xmlns:svg="http://www.w3.org/2000/svg">
  <sodipodi:namedview
     id="namedview829"
     pagecolor="#ffffff"
     bordercolor="#000000"
     borderopacity="1"
     inkscape:pageshadow="0"
     inkscape:pageopacity="0"
     inkscape:pagecheckerboard="false"
     inkscape:document-units="mm"
     showgrid="false"
     showborder="true"
     inkscape:snap-global="true"
     viewbox-width="213.8"
     inkscape:zoom="1.4142136"
     inkscape:cx="376.53436"
     inkscape:cy="167.23075"
     inkscape:window-width="1680"
     inkscape:window-height="1020"
     inkscape:window-x="1920"
     inkscape:window-y="0"
     inkscape:window-maximized="1"
     inkscape:current-layer="layer2"
     viewbox-height="100.2" />
  <defs
     id="defs824">
    <rect
       x="207.11986"
       y="456.84637"
       width="16.207588"
       height="12.273837"
       id="rect20524" />
    <clipPath
       clipPathUnits="userSpaceOnUse"
       id="clipPath29946">
      <rect
         style="fill:#ffffff;fill-opacity:1;stroke:none;stroke-width:2.48469;stroke-miterlimit:0;stroke-dasharray:none;stroke-dashoffset:0;paint-order:fill markers stroke"
         id="rect29948"
         width="175.72928"
         height="75.382622"
         x="9.6449986"
         y="-28.631327"
         ry="0"
         clip-path="none" />
    </clipPath>
    <clipPath
       clipPathUnits="userSpaceOnUse"
       id="clipPath29950">
      <rect
         style="fill:#ffffff;fill-opacity:1;stroke:none;stroke-width:2.48469;stroke-miterlimit:0;stroke-dasharray:none;stroke-dashoffset:0;paint-order:fill markers stroke"
         id="rect29952"
         width="175.72928"
         height="75.382622"
         x="9.6449986"
         y="-28.631327"
         ry="0"
         clip-path="none" />
    </clipPath>
  </defs>
  <g
     inkscape:label="Layer 1"
     inkscape:groupmode="layer"
     id="layer1">
    <rect
       style="fill:#ffffff;fill-opacity:1;stroke:#000000;stroke-width:1.54733;stroke-miterlimit:0;stroke-dasharray:none;stroke-dashoffset:0;stroke-opacity:1;paint-order:fill markers stroke"
       id="rect1809"
       width="88.72702"
       height="88.684044"
       x="9.8597107"
       y="-28.654791" />
    <rect
       style="fill:#ffffff;fill-opacity:1;stroke:#000000;stroke-width:1.53457;stroke-miterlimit:0;stroke-dasharray:none;stroke-dashoffset:0;stroke-opacity:1;paint-order:fill markers stroke"
       id="rect1809-3"
       width="87.25692"
       height="88.696808"
       x="98.580353"
       y="-28.661173" />
    <text
       xml:space="preserve"
       transform="scale(0.26458333)"
       id="text20522"
       style="white-space:pre;shape-inside:url(#rect20524);fill:#000000;fill-opacity:1;stroke:#000000;stroke-width:0.377953;stroke-miterlimit:0;stroke-dasharray:none;stroke-dashoffset:0;stroke-opacity:1;paint-order:fill markers stroke" />
    <text
       xml:space="preserve"
       style="font-size:3.175px;fill:#000000;fill-opacity:1;stroke:#000000;stroke-width:0.1;stroke-miterlimit:0;stroke-dasharray:none;stroke-dashoffset:0;stroke-opacity:1;paint-order:fill markers stroke"
       x="56.408184"
       y="133.16194"
       id="text21868"><tspan
         sodipodi:role="line"
         id="tspan21866"
         style="stroke-width:0.1"
         x="56.408184"
         y="133.16194" /></text>
  </g>
  <g
     inkscape:groupmode="layer"
     id="layer2"
     inkscape:label="Layer 2"
     style="display:inline">
    <path
       style="fill:#deaa87;fill-opacity:1;stroke:#000000;stroke-width:0.287103;stroke-linecap:round;stroke-linejoin:round;stroke-miterlimit:0;stroke-dasharray:none;stroke-dashoffset:0;stroke-opacity:1;paint-order:fill markers stroke"
       d="m 43.872498,-1.5077369 0.01188,-0.077086 0.11302,-0.1391247 0.202106,-0.051307 0.38053,0.02691 0.90855,0.073307 0.429809,0.036923 0.622508,0.090328 0.578463,0.026129 0.816248,0.1549853 0.813185,0.051466 0.802634,-0.020688 h 0.9983 l 0.888081,-0.1139762 0.93055,-0.178267 1.246185,-0.3462521 0.01204,0.2595739 -0.129182,0.3849284 -0.08989,0.369216 c 0,0 0.07837,0.7311972 0.09046,0.8197362 0.0121,0.088537 0.219925,0.6718085 0.219925,0.6718085 l 0.338891,0.7084214 0.438625,0.6986702 0.524791,0.4748094 0.556108,0.3247563 0.60592,0.3126939 0.504594,0.2318153 0.829886,0.1654638 0.456991,0.1869272 0.471458,-0.2244264 -1.69281,2.3837983 -1.590916,2.886458 L 55.473445,8.5256069 56.311816,8.1106598 54.202604,9.1517247 53.047757,9.6011378 49.943262,9.2913935 49.298743,9.2296675 47.241258,8.522426 44.033891,7.7009011 42.16566,7.1881131 41.083101,6.9525213 40.617822,7.2347682 41.081846,6.9521091 40.766022,6.5276532 39.278607,5.5634749 37.300772,4.9232879 35.528365,4.6152757 33.903124,4.4698935 l -1.766678,-0.05614 -2.472793,0.2742411 -1.905967,0.6478507 -0.665422,0.8617646 -0.347925,0.573448 -0.220682,0.6671415 -0.432577,0.5010704 -0.15397,0.5804432 0.409624,0.6769751 0.500179,0.4118574 2.000831,1.1074565 3.654785,1.370988 0.305176,0.369367 3.253974,2.295797 1.960622,1.142974 2.767059,1.127684 9.949235,3.691015 1.077403,0.942179 1.416418,0.623251 1.676796,0.310641 1.765404,0.797589 2.136386,1.373752 1.352967,0.850959 2.510807,1.222445 2.306049,1.013562 3.681814,0.676248 3.562285,0.691847 2.846023,0.299659 1.995573,0.898223 2.84446,2.280845 1.566624,1.615504 3.166456,2.167159 6.600512,7.228424 1.745222,2.464284 1.074791,-0.107711 L 94.2169,19.27202 93.492497,18.606585 88.260626,13.227996 84.632364,9.2333481 82.350091,7.0581157 80.42647,4.393385 79.238625,2.2943792 77.768837,-0.2795735 76.230406,-2.2110199 74.635264,-4.4858054 73.554243,-6.3830009 72.147836,-9.0782131 70.660429,-11.03654 l -1.371112,-1.499843 -1.280816,-0.81409 -1.376364,-0.22275 -1.615798,0.01744 -2.33564,0.656462 -6.2991,0.425037 -4.591244,0.188696 -5.969317,1.410071 -1.514654,0.107262 -1.037787,0.115437 -0.749016,0.7666749 -5.472211,2.8873205 -6.310672,5.4578239 -4.261589,5.829061 -0.07149,0.4223742 v 0.2160562 l 0.11009,0.2826848 0.141347,0.197692 0.264489,0.064644 0.351201,0.062184 0.400773,-0.3634284 0.360129,-0.1527908 c 0,0 0.315591,-0.069882 0.378948,-0.096943 0.06336,-0.027061 0.506863,-0.1129633 0.506863,-0.1129633 0,0 0.2295,-0.1351682 0.413545,-0.1714548 0.184045,-0.036287 0.696375,-0.1462688 0.696375,-0.1462688 0,0 0.34369,6.926e-4 0.476628,-0.12208 0.04081,-0.037691 0.350606,-0.043727 0.350606,-0.043727 l 0.389269,-0.02585 0.349433,-0.056607 0.635133,0.00899 c 0.09234,0.00131 0.595232,-0.036025 0.595232,-0.036025 0,0 0.219333,-0.00544 0.282454,-0.00544 0.06312,0 0.275057,0.096551 0.376642,0.068846 0.101585,-0.027705 0.286277,-0.05129 0.488983,-0.037611 l 0.339251,0.022894 c 0.09186,0.0062 -0.146985,0.040185 -0.03817,0.040185 0.108813,0 0.769553,-0.4304623 0.769553,-0.4304623 0,0 0.03451,-0.053454 0.21921,-0.1458026 0.184699,-0.092349 0.858842,-0.5910302 0.858842,-0.5910302 0,0 0.08206,-0.063592 0.192822,-0.183588 0.11076,-0.1199959 0.120883,-0.1674989 0.230815,-0.2585187 0.109932,-0.09102 0.174573,-0.1279588 0.303862,-0.2480121 0.129288,-0.1200534 0.332454,-0.28628 0.332454,-0.28628 0,0 0.09987,-0.2343301 0.136807,-0.298974 0.03694,-0.064644 0.148468,-0.069417 0.323934,-0.2633485 0.175462,-0.1939316 0.166226,-0.2031667 0.277044,-0.2678105 0.110818,-0.064644 0.27807,-0.1303126 0.332455,-0.1569919 0.05438,-0.026679 1.161201,-0.2781893 1.161201,-0.2781893 0,0 0.09172,0.040677 0.230027,-0.051564 0.138307,-0.092241 0.184243,-0.1197053 0.350469,-0.2120537 0.166226,-0.092348 0.757257,-0.3416891 0.757257,-0.3416891 0,0 0.192058,-0.017222 0.302876,-0.0911 0.110819,-0.073879 0.670973,-0.4050294 0.670973,-0.4050294 0,0 0.154571,-0.099279 0.274623,-0.1731574 0.120052,-0.073879 0.442209,-0.2580442 0.442209,-0.2580442 l 0.320637,-0.1464664 0.515198,-0.2295677 0.320594,-0.2012917 z"
       id="path30191"
       sodipodi:nodetypes="cccccccccccccccccccscccccccccccccccccccccccccccccccccccccccccccccccccccccccccccccccccccccccccccccccccccccccccccccccccccscscscccscssssscscssscsssscsscscsccccc" />
    <path
       style="display:inline;fill:#deaa87;fill-opacity:1;stroke:#000000;stroke-width:0.287103;stroke-linecap:round;stroke-linejoin:round;stroke-miterlimit:0;stroke-dasharray:none;stroke-dashoffset:0;stroke-opacity:1;paint-order:fill markers stroke"
       d="m 133.6863,-3.6747114 0.0119,-0.077086 0.11302,-0.1391247 0.20211,-0.051307 0.38053,0.02691 0.90855,0.073307 0.42981,0.036923 0.62251,0.090328 0.57846,0.026129 0.81625,0.1549853 0.81318,0.051466 0.80264,-0.020688 h 0.9983 l 0.88808,-0.1139762 0.93055,-0.178267 1.24618,-0.3462521 0.012,0.2595739 -0.12918,0.3849284 -0.0899,0.369216 c 0,0 0.0784,0.7311972 0.0905,0.8197362 0.0121,0.088537 0.21992,0.6718085 0.21992,0.6718085 l 0.3389,0.7084214 0.43862,0.69867013 0.52479,0.47480942 0.55611,0.32475632 0.60592,0.31269389 0.50459,0.23181524 0.82989,0.1654638 0.45699,0.1869273 0.47146,-0.2244264 -1.69281,2.3837983 -1.59092,2.886458 0.31201,-0.1546539 0.83837,-0.4149471 -2.10921,1.0410649 -1.15485,0.4494131 -3.10449,-0.3097443 -0.64452,-0.061726 -2.05749,-0.7072415 -3.20736,-0.8215249 -1.86824,-0.512788 -1.08256,-0.2355918 -0.46527,0.2822469 0.46402,-0.2826591 -0.31582,-0.4244559 -1.48742,-0.9641783 -1.97783,-0.640187 -1.77241,-0.3080122 -1.62524,-0.1453822 -1.76668,-0.05614 -2.47279,0.2742411 -1.90597,0.6478507 -0.66542,0.8617646 -0.34793,0.573448 -0.22068,0.6671415 -0.43258,0.5010704 -0.15397,0.5804432 0.40963,0.6769751 0.50018,0.4118574 2.00083,1.1074567 3.65478,1.3709878 0.30518,0.3693665 3.25397,2.295797 1.96063,1.142974 2.76705,1.127684 9.94924,3.691015 1.0774,0.942179 1.41642,0.623251 1.6768,0.310641 1.7654,0.797589 2.13639,1.373752 1.35296,0.850959 2.51081,1.222445 2.30605,1.013562 3.68181,0.676248 3.56229,0.691847 2.84602,0.299659 1.99557,0.898223 2.84446,2.280845 1.56662,1.615504 3.16646,2.167159 6.60051,7.228424 1.74522,2.464284 1.0748,-0.107711 0.15231,-26.790667 -0.7244,-0.665435 -5.23187,-5.378589 -3.62827,-3.9946474 -2.28227,-2.1752324 -1.92362,-2.6647307 -1.18785,-2.09900588 -1.46978,-2.57395262 -1.53843,-1.9314464 -1.59515,-2.2747855 -1.08101,-1.8971955 -1.40641,-2.6952126 -1.48741,-1.958327 -1.37111,-1.499843 -1.28081,-0.81409 -1.37637,-0.22275 -1.6158,0.01744 -2.33564,0.656462 -6.2991,0.425037 -4.59124,0.188696 -5.96932,1.410071 -1.51465,0.107262 -1.03779,0.115437 -0.74901,0.766675 -5.47222,2.8873209 -6.31067,5.4578239 -4.26159,5.829061 -0.0715,0.4223742 v 0.2160562 l 0.11009,0.2826848 0.14135,0.197692 0.26449,0.064644 0.3512,0.062184 0.40077,-0.3634284 0.36013,-0.1527908 c 0,0 0.31559,-0.069882 0.37895,-0.096943 0.0634,-0.027061 0.50686,-0.1129633 0.50686,-0.1129633 0,0 0.2295,-0.1351682 0.41355,-0.1714548 0.18404,-0.036287 0.69637,-0.1462688 0.69637,-0.1462688 0,0 0.34369,6.926e-4 0.47663,-0.12208 0.0408,-0.037691 0.35061,-0.043727 0.35061,-0.043727 l 0.38927,-0.02585 0.34943,-0.056607 0.63513,0.00899 c 0.0923,0.00131 0.59523,-0.036025 0.59523,-0.036025 0,0 0.21934,-0.00544 0.28246,-0.00544 0.0631,0 0.27506,0.096551 0.37664,0.068846 0.10159,-0.027705 0.28628,-0.05129 0.48898,-0.037611 l 0.33925,0.022894 c 0.0919,0.0062 -0.14698,0.040185 -0.0382,0.040185 0.10882,0 0.76956,-0.4304623 0.76956,-0.4304623 0,0 0.0345,-0.053454 0.21921,-0.1458026 0.1847,-0.092349 0.85884,-0.59103019 0.85884,-0.59103019 0,0 0.0821,-0.0635921 0.19282,-0.18358804 0.11076,-0.11999593 0.12088,-0.16749891 0.23082,-0.25851873 0.10993,-0.0910198 0.17457,-0.12795876 0.30386,-0.24801209 0.12929,-0.12005334 0.33245,-0.28627998 0.33245,-0.28627998 0,0 0.0999,-0.2343301 0.13681,-0.29897397 0.0369,-0.064644 0.14847,-0.069417 0.32393,-0.2633485 0.17547,-0.1939316 0.16623,-0.2031667 0.27705,-0.2678105 0.11082,-0.064644 0.27807,-0.1303126 0.33245,-0.1569919 0.0544,-0.026679 1.1612,-0.2781893 1.1612,-0.2781893 0,0 0.0917,0.040677 0.23003,-0.051564 0.13831,-0.092241 0.18424,-0.1197053 0.35047,-0.2120537 0.16623,-0.092348 0.75726,-0.3416891 0.75726,-0.3416891 0,0 0.19205,-0.017222 0.30287,-0.0911 0.11082,-0.073879 0.67098,-0.4050294 0.67098,-0.4050294 0,0 0.15457,-0.099279 0.27462,-0.1731574 0.12005,-0.073879 0.44221,-0.2580442 0.44221,-0.2580442 l 0.32063,-0.1464664 0.5152,-0.2295677 0.3206,-0.2012917 z"
       id="path30191-5"
       sodipodi:nodetypes="cccccccccccccccccccscccccccccccccccccccccccccccccccccccccccccccccccccccccccccccccccccccccccccccccccccccccccccccccccccccscscscccscssssscscssscsssscsscscsccccc" />
    <path
       style="fill:none;fill-opacity:1;stroke:#000000;stroke-width:0.287104;stroke-linecap:round;stroke-linejoin:round;stroke-miterlimit:0;stroke-dasharray:none;stroke-dashoffset:0;stroke-opacity:1;paint-order:fill markers stroke"
       d="M 47.723214,-4.4772953 46.950805,-5.2230791 46.712509,-6.3393147"
       id="path31525"
       sodipodi:nodetypes="ccc" />
    <path
       style="display:inline;fill:#deaa87;fill-opacity:1;stroke:#000000;stroke-width:0.287104;stroke-linecap:round;stroke-linejoin:round;stroke-miterlimit:0;stroke-dasharray:none;stroke-dashoffset:0;stroke-opacity:1;paint-order:fill markers stroke"
       d="m 26.690935,-3.2644056 3.90693,-3.2165065 0.76431,-0.925755 1.47132,-0.901812 1.93406,-1.321613 1.43056,-0.9604009 1.38952,-0.860773 1.61846,-0.620686 1.26743,-0.337629 1.61688,-0.4862 c 0,0 1.24046,-0.363225 1.38054,-0.363225 0.14008,0 1.09662,-0.282546 1.09662,-0.282546 l 0.85623,-0.540846 0.76195,-0.142663 1.05818,-0.02612 c 0,0 0.62264,0.12847 0.82472,0.15459 0.20208,0.02612 1.11628,0.104152 1.11628,0.104152 l 1.02919,0.122991 0.836,-0.06951 1.20841,-0.125552 1.77568,0.08155 1.13457,0.07836 1.26295,0.231219 1.18727,0.23098 1.43283,0.57108 1.36698,0.207825 1.74461,0.283442 1.4404,0.328303 1.31744,0.155383 1.12825,0.15672 0.74819,0.128337 0.97807,0.01214 0.86779,0.05224 1.15076,0.258446 0.83157,0.768658 0.75109,0.8033319 1.09373,1.231863 1.16868,1.60962 1.61377,2.8749909 1.45444,2.4331975 2.10083,3.0021609 1.26767,1.8716568 0.94319,1.6928968 0.92634,1.3370658 0.88683,1.1927208 1.32822,1.7364271 1.801681,2.2544495 5.68947,5.702311 4.683419,4.271604 0.15516,23.795242 -2.995339,0.103816 -1.65818,-0.825983 -1.80902,-2.443389 -2.20597,-2.808693 -4.394971,-3.801312 -2.65527,-2.87953 -1.05591,-0.929712 -4.64497,-1.781975 -4.94002,-0.578113 -5.14993,-1.496615 -7.44275,-2.881364 -3.39957,-2.004906 -3.04185,-1.436399 -4.54554,-0.924778 -5.75918,-1.755 -1.24584,-0.515121 -2.30434,-1.143593 -1.07471,-1.115535 -1.81635,-1.170859 -0.30927,-0.485395 -2.87183,-0.898175 -2.51451,-1.292563 -1.25024,-1.039109 -0.15214,-0.714631 0.30747,-0.440529 0.39054,-0.6303415 0.35937,-0.7579022 0.67226,-0.9361772 1.34691,-0.6748577 1.50605,-0.4662731 1.49987,-0.022034 2.03676,0.070901 2.30463,0.4372106 1.31751,0.3267254 2.33204,0.8338432 1.24448,0.7793818 0.28608,0.3295269 -0.40816,0.2094305 0.41108,-0.2076985 1.70438,0.088362 2.08874,0.4669357 2.32318,0.6786561 1.49147,0.312931 1.7586,0.38335 2.35686,-0.132569 0.73136,0.113613 1.33756,-0.996974 0.79232,-0.9930201 1.09028,-1.8650384 0.95691,-1.4748895 0.47872,-1.1418931 0.27353,-0.6862441 -0.7416,1.8105688 -0.82829,-0.9590333 -1.26152,-1.367028 -1.05726,-0.8546252 -0.57032,-1.2646454 -0.15194,-2.3954055 0.3637,-1.3194032 0.24893,-0.7686932 -0.17878,-0.3934648 -0.29745,-0.3044538 -0.91241,0.110663 -0.70596,0.1475183 -1.1089,0.050397 -0.67881,-0.052702 -0.86479,-5.388e-4 -1.03871,-0.1649089 -2.15291,-0.9096749 -1.35568,-0.662852 -0.95791,-0.14828 -0.48466,-0.12337 0.04,-1.267257 -0.0457,1.278496 -0.29613,8.08e-4 -0.30252,0.310505 -0.67438,0.357644 -1.11031,0.283577 -1.01333,0.298552 -0.87482,0.2249287 -1.09252,0.1141322 h -0.74015 l -0.71044,-0.012547 -0.85002,-0.4676779 0.85141,0.4658928 -1.65455,0.9945884 -0.81822,0.4150198 -1.42783,0.816423 -1.36829,0.6548166 -1.11653,0.4925367 -1.05436,0.23508 -0.9296,0.051318 -1.23637,-0.078721 -0.69295,-0.3315498 -0.81963,-0.4560478 -0.50754,-0.6239709 -0.36412,-0.6640075 z"
       id="path40158-6" />
  </g>
  <g
     inkscape:groupmode="layer"
     id="layer3"
     inkscape:label="Layer 3"
     style="display:inline;opacity:0.30466995">
    <path
       style="fill:#deaa87;fill-opacity:1;stroke:#000000;stroke-width:0.287104;stroke-linecap:round;stroke-linejoin:round;stroke-miterlimit:0;stroke-dasharray:none;stroke-dashoffset:0;stroke-opacity:1;paint-order:fill markers stroke"
       d="m 115.37249,-6.5639882 3.90693,-3.2165066 0.76431,-0.9257552 1.47132,-0.901812 1.93406,-1.321613 1.43056,-0.960401 1.38952,-0.860773 1.61846,-0.620686 1.26743,-0.337629 1.61688,-0.4862 c 0,0 1.24046,-0.363225 1.38054,-0.363225 0.14008,0 1.09662,-0.282546 1.09662,-0.282546 l 0.85623,-0.540846 0.76195,-0.142663 1.05818,-0.02612 c 0,0 0.62264,0.12847 0.82472,0.15459 0.20208,0.02612 1.11628,0.104152 1.11628,0.104152 l 1.02919,0.122991 0.836,-0.06951 1.20841,-0.125552 1.77568,0.08155 1.13457,0.07836 1.26295,0.231219 1.18727,0.23098 1.43283,0.57108 1.36698,0.207825 1.74461,0.283442 1.4404,0.328303 1.31744,0.155383 1.12825,0.15672 0.74819,0.128337 0.97807,0.01214 0.86779,0.05224 1.15076,0.258446 0.83157,0.768658 0.75109,0.803332 1.09373,1.231863 1.16868,1.60962 1.61377,2.8749912 1.45444,2.4331975 2.10083,3.0021609 1.26767,1.87165675 0.94319,1.69289685 0.92634,1.3370658 0.88683,1.1927208 1.32822,1.7364271 1.80168,2.2544491 5.68947,5.702311 4.68342,4.271604 0.15516,23.795242 -2.99534,0.103816 -1.65818,-0.825983 -1.80902,-2.443389 -2.20597,-2.808693 -4.39497,-3.801312 -2.65527,-2.87953 -1.05591,-0.929712 -4.64497,-1.781975 -4.94002,-0.578113 -5.14993,-1.496615 -7.44275,-2.881364 -3.39957,-2.004906 -3.04185,-1.436399 -4.54554,-0.924778 -5.75918,-1.755 -1.24584,-0.515121 -2.30434,-1.143593 -1.07471,-1.115535 -1.81635,-1.170859 -0.30927,-0.485395 -2.87183,-0.898175 -2.51451,-1.2925627 -1.25024,-1.0391093 -0.15214,-0.7146303 0.30747,-0.4405293 0.39054,-0.6303415 0.35937,-0.7579022 0.67226,-0.9361772 1.34691,-0.6748577 1.50605,-0.4662731 1.49987,-0.022034 2.03676,0.070901 2.30463,0.4372106 1.31751,0.3267254 2.33204,0.8338432 1.24448,0.7793818 0.28608,0.3295269 -0.40816,0.2094305 0.41108,-0.2076985 1.70438,0.088362 2.08874,0.4669357 2.32318,0.6786559 1.49147,0.3129309 1.7586,0.3833499 2.35686,-0.1325682 0.73136,0.1136126 1.33756,-0.9969743 0.79232,-0.9930198 1.09028,-1.8650384 0.95691,-1.4748895 0.47872,-1.1418931 0.27353,-0.68624408 -0.7416,1.81056878 -0.82829,-0.9590333 -1.26152,-1.367028 -1.05726,-0.85462516 -0.57032,-1.26464544 -0.15194,-2.3954055 0.3637,-1.3194032 0.24893,-0.7686932 -0.17878,-0.3934648 -0.29745,-0.3044538 -0.91241,0.110663 -0.70596,0.1475183 -1.1089,0.050397 -0.67881,-0.052702 -0.86479,-5.388e-4 -1.03871,-0.1649089 -2.15291,-0.9096751 -1.35568,-0.6628519 -0.95791,-0.1482801 -0.48466,-0.12337 0.04,-1.2672571 -0.0457,1.278496 -0.29613,8.082e-4 -0.30252,0.3105049 -0.67438,0.3576444 -1.11031,0.283577 -1.01333,0.298552 -0.87482,0.2249285 -1.09252,0.1141322 h -0.74015 l -0.71044,-0.012547 -0.85002,-0.4676776 0.85141,0.4658925 -1.65455,0.9945884 -0.81822,0.4150198 -1.42783,0.816423 -1.36829,0.6548166 -1.11653,0.4925367 -1.05436,0.23508 -0.9296,0.051318 -1.23637,-0.078721 -0.69295,-0.3315498 -0.81963,-0.4560478 -0.50754,-0.6239709 -0.36412,-0.6640075 z"
       id="path40158" />
  </g>
</svg>
