<?xml version="1.0" encoding="UTF-8" standalone="no"?>
<!-- Created with Inkscape (http://www.inkscape.org/) -->

<svg
   width="297mm"
   height="210mm"
   viewBox="0 0 297 210"
   version="1.1"
   id="svg827"
   inkscape:version="1.1.2 (0a00cf5339, 2022-02-04)"
   sodipodi:docname="9_pinza_1 pinza.svg"
   xmlns:inkscape="http://www.inkscape.org/namespaces/inkscape"
   xmlns:sodipodi="http://sodipodi.sourceforge.net/DTD/sodipodi-0.dtd"
   xmlns="http://www.w3.org/2000/svg"
   xmlns:svg="http://www.w3.org/2000/svg">
  <sodipodi:namedview
     id="namedview829"
     pagecolor="#ffffff"
     bordercolor="#000000"
     borderopacity="1"
     inkscape:pageshadow="0"
     inkscape:pageopacity="0"
     inkscape:pagecheckerboard="false"
     inkscape:document-units="mm"
     showgrid="false"
     showborder="true"
     inkscape:snap-global="true"
     viewbox-width="100"
     inkscape:zoom="0.58502273"
     inkscape:cx="613.65137"
     inkscape:cy="411.09514"
     inkscape:window-width="1920"
     inkscape:window-height="1012"
     inkscape:window-x="0"
     inkscape:window-y="38"
     inkscape:window-maximized="1"
     inkscape:current-layer="layer7"
     viewbox-height="100.2"
     showguides="true"
     inkscape:guide-bbox="true"
     inkscape:snap-bbox="true"
     inkscape:snap-object-midpoints="false"
     inkscape:snap-smooth-nodes="false"
     inkscape:snap-midpoints="false"
     inkscape:snap-others="true"
     inkscape:snap-bbox-midpoints="true"
     inkscape:snap-intersection-paths="false"
     inkscape:object-nodes="false"
     inkscape:bbox-nodes="true"
     inkscape:bbox-paths="true"
     width="189mm"
     scale-x="1">
    <inkscape:grid
       type="xygrid"
       id="grid76849" />
  </sodipodi:namedview>
  <defs
     id="defs824">
    <marker
       style="overflow:visible"
       id="marker45397"
       refX="0"
       refY="0"
       orient="auto"
       inkscape:stockid="DotL"
       inkscape:isstock="true">
      <path
         transform="matrix(0.8,0,0,0.8,5.92,0.8)"
         style="fill:context-stroke;fill-rule:evenodd;stroke:context-stroke;stroke-width:1pt"
         d="m -2.5,-1 c 0,2.76 -2.24,5 -5,5 -2.76,0 -5,-2.24 -5,-5 0,-2.76 2.24,-5 5,-5 2.76,0 5,2.24 5,5 z"
         id="path45395" />
    </marker>
    <marker
       style="overflow:visible"
       id="DotL"
       refX="0"
       refY="0"
       orient="auto"
       inkscape:stockid="DotL"
       inkscape:isstock="true">
      <path
         transform="matrix(0.8,0,0,0.8,5.92,0.8)"
         style="fill:context-stroke;fill-rule:evenodd;stroke:context-stroke;stroke-width:1pt"
         d="m -2.5,-1 c 0,2.76 -2.24,5 -5,5 -2.76,0 -5,-2.24 -5,-5 0,-2.76 2.24,-5 5,-5 2.76,0 5,2.24 5,5 z"
         id="path45188" />
    </marker>
    <rect
       x="207.11986"
       y="456.84637"
       width="16.207588"
       height="12.273837"
       id="rect20524" />
    <clipPath
       clipPathUnits="userSpaceOnUse"
       id="clipPath29946">
      <rect
         style="fill:#ffffff;fill-opacity:1;stroke:none;stroke-width:2.48469;stroke-miterlimit:0;stroke-dasharray:none;stroke-dashoffset:0;paint-order:fill markers stroke"
         id="rect29948"
         width="175.72928"
         height="75.382622"
         x="9.6449986"
         y="-28.631327"
         ry="0"
         clip-path="none" />
    </clipPath>
    <clipPath
       clipPathUnits="userSpaceOnUse"
       id="clipPath29950">
      <rect
         style="fill:#ffffff;fill-opacity:1;stroke:none;stroke-width:2.48469;stroke-miterlimit:0;stroke-dasharray:none;stroke-dashoffset:0;paint-order:fill markers stroke"
         id="rect29952"
         width="175.72928"
         height="75.382622"
         x="9.6449986"
         y="-28.631327"
         ry="0"
         clip-path="none" />
    </clipPath>
    <marker
       style="overflow:visible"
       id="marker45397-6"
       refX="0"
       refY="0"
       orient="auto"
       inkscape:stockid="DotL"
       inkscape:isstock="true">
      <path
         transform="matrix(0.8,0,0,0.8,5.92,0.8)"
         style="fill:context-stroke;fill-rule:evenodd;stroke:context-stroke;stroke-width:1pt"
         d="m -2.5,-1 c 0,2.76 -2.24,5 -5,5 -2.76,0 -5,-2.24 -5,-5 0,-2.76 2.24,-5 5,-5 2.76,0 5,2.24 5,5 z"
         id="path45395-2" />
    </marker>
  </defs>
  <g
     inkscape:groupmode="layer"
     id="layer7"
     inkscape:label="Layer 7">
    <rect
       style="fill:#ffffff;fill-opacity:1;stroke-width:0.4;stroke-linecap:round;stroke-linejoin:round;stroke-miterlimit:0;paint-order:fill markers stroke"
       id="rect940"
       width="346.89938"
       height="231.49146"
       x="-15.887627"
       y="-3.2333536" />
  </g>
  <g
     inkscape:label="Layer 1"
     inkscape:groupmode="layer"
     id="layer1"
     style="display:none">
    <rect
       style="fill:#ffffff;fill-opacity:1;stroke:#000000;stroke-width:1.54733;stroke-miterlimit:0;stroke-dasharray:none;stroke-dashoffset:0;stroke-opacity:1;paint-order:fill markers stroke"
       id="rect1809"
       width="88.72702"
       height="88.684044"
       x="9.8597107"
       y="-28.654791" />
    <rect
       style="fill:#ffffff;fill-opacity:1;stroke:#000000;stroke-width:1.53457;stroke-miterlimit:0;stroke-dasharray:none;stroke-dashoffset:0;stroke-opacity:1;paint-order:fill markers stroke"
       id="rect1809-3"
       width="87.25692"
       height="88.696808"
       x="98.580353"
       y="-28.661173" />
    <text
       xml:space="preserve"
       transform="scale(0.26458333)"
       id="text20522"
       style="white-space:pre;shape-inside:url(#rect20524);fill:#000000;fill-opacity:1;stroke:#000000;stroke-width:0.377953;stroke-miterlimit:0;stroke-dasharray:none;stroke-dashoffset:0;stroke-opacity:1;paint-order:fill markers stroke" />
    <text
       xml:space="preserve"
       style="font-size:3.175px;fill:#000000;fill-opacity:1;stroke:#000000;stroke-width:0.1;stroke-miterlimit:0;stroke-dasharray:none;stroke-dashoffset:0;stroke-opacity:1;paint-order:fill markers stroke"
       x="56.408184"
       y="133.16194"
       id="text21868"><tspan
         sodipodi:role="line"
         id="tspan21866"
         style="stroke-width:0.1"
         x="56.408184"
         y="133.16194" /></text>
  </g>
  <g
     inkscape:groupmode="layer"
     id="layer2"
     inkscape:label="Layer 2"
     style="display:none;opacity:1">
    <path
       style="fill:#deaa87;fill-opacity:1;stroke:#000000;stroke-width:0.287103;stroke-linecap:round;stroke-linejoin:round;stroke-miterlimit:0;stroke-dasharray:none;stroke-dashoffset:0;stroke-opacity:1;paint-order:fill markers stroke"
       d="m 33.538406,0.67482116 -0.0085,-0.077534 0.07316,-0.1636359 0.18194,-0.1018676 0.374529,-0.072495 0.896565,-0.164341 0.42472,-0.075578 0.624675,-0.073867 0.565515,-0.1244786 0.828548,-0.061556 0.798797,-0.1607554 0.769931,-0.2277201 0.964283,-0.258379 0.828322,-0.33994486 0.852703,-0.4130368 1.114106,-0.6569902 0.07881,0.2476129 -0.02515,0.4052471 0.0087,0.3799005 c 0,0 0.264947,0.68599856 0.299541,0.76839156 0.0346,0.082388 0.386308,0.5919964 0.386308,0.5919964 l 0.510696,0.5965711 0.604509,0.56133914 0.629798,0.3228048 0.621213,0.1697591 0.666205,0.1452155 0.547398,0.093318 0.844434,-0.054964 0.489799,0.06228 0.397308,-0.3388015 -1.018156,2.7407038 -0.789637,3.1998632 0.261348,-0.2301371 0.702408,-0.6177945 -1.767895,1.5514956 -0.99918,0.732996 -3.078879,0.504313 -0.638534,0.107191 -2.170425,-0.150627 -3.310705,0.0366 -1.937292,-0.01178 -1.106647,0.05262 -0.376374,0.393053 0.375055,-0.393126 -0.41492,-0.328252 -1.68628,-0.546353 -2.076135,-0.106472 -1.791733,0.161216 -1.60749,0.280214 -1.72101,0.403023 -2.317556,0.9049027 -1.673346,1.119076 -0.419707,1.004625 -0.187651,0.643958 -0.04049,0.701525 -0.288151,0.595956 0.0015,0.600516 0.57088,0.547889 0.589733,0.268368 2.219285,0.551868 3.885089,0.378344 0.390377,0.277796 3.737293,1.375379 2.189639,0.596582 2.96464,0.373092 10.565528,0.990195 1.284545,0.631222 1.529464,0.235419 1.70006,-0.133931 1.911681,0.313492 2.419144,0.774005 1.52711,0.47179 2.741645,0.530946 2.489801,0.382176 3.731386,-0.299718 3.619966,-0.253714 2.826604,-0.447157 2.160053,0.351125 3.337864,1.466927 1.931365,1.154984 3.619464,1.273776 8.246459,5.273783 2.323558,1.928619 1.010349,-0.382221 L 87.545561,7.7164352 86.673615,7.2611635 80.227934,3.4199533 75.689411,0.50048296 72.921913,-1.0099344 l -2.547758,-2.0760625 -1.690633,-1.7200469 -2.085894,-2.1058383 -1.985906,-1.4674587 -2.129546,-1.7844212 -1.535217,-1.552761 -2.056057,-2.23937 -1.943577,-1.50663 -1.71258,-1.093867 -1.447876,-0.454851 -1.387117,0.141069 -1.556227,0.435045 -2.08615,1.238602 -5.974456,2.040881 -4.385963,1.370568 -5.400964,2.9069972 -1.435282,0.4956285 -0.972548,0.3801026 -0.525064,0.9344107 -4.538457,4.2052498 -4.683052,6.9051752 -2.607707,6.733421 0.04026,0.426485 0.05592,0.208694 0.179503,0.244559 0.187697,0.154373 0.272208,-0.006 0.355329,-0.03083 0.293055,-0.454773 0.308312,-0.240792 c 0,0 0.286751,-0.149182 0.340945,-0.191719 0.0542,-0.04254 0.460355,-0.2403 0.460355,-0.2403 0,0 0.186696,-0.189962 0.355078,-0.272646 0.168382,-0.08268 0.63479,-0.32152 0.63479,-0.32152 0,0 0.332158,-0.08828 0.42879,-0.2412808 0.02966,-0.04697 0.327342,-0.13298 0.327342,-0.13298 l 0.369315,-0.12572 0.322875,-0.145118 0.615818,-0.1557 c 0.08953,-0.02263 0.565626,-0.188855 0.565626,-0.188855 0,0 0.210452,-0.06202 0.271422,-0.07836 0.06097,-0.01634 0.290674,0.02207 0.381627,-0.03098 0.09095,-0.05305 0.263247,-0.123637 0.462587,-0.162888 l 0.333617,-0.06569 c 0.09033,-0.01779 -0.131576,0.07686 -0.02647,0.0487 0.105105,-0.02816 0.631919,-0.614969 0.631919,-0.614969 0,0 0.0195,-0.06057 0.174004,-0.197571 0.154504,-0.137006 0.676608,-0.7931757 0.676608,-0.7931757 0,0 0.0628,-0.082664 0.138736,-0.2272384 0.07593,-0.1445739 0.07341,-0.1930783 0.15604,-0.3094492 0.08263,-0.116371 0.135507,-0.1687815 0.229318,-0.3182065 0.09381,-0.1494249 0.247031,-0.3625707 0.247031,-0.3625707 0,0 0.03582,-0.2521938 0.05477,-0.324195 0.01895,-0.072002 0.125442,-0.105478 0.244736,-0.3382154 0.11929,-0.2327364 0.107979,-0.2392664 0.19829,-0.3303893 0.09031,-0.091123 0.234867,-0.1978421 0.280494,-0.2376882 0.04562,-0.039845 1.049633,-0.5692512 1.049633,-0.5692512 0,0 0.09912,0.015552 0.208844,-0.1093424 0.10972,-0.1248944 0.146983,-0.163312 0.283643,-0.2955362 0.136662,-0.1322467 0.64302,-0.5260618 0.64302,-0.5260618 0,0 0.181056,-0.066344 0.268977,-0.166386 0.08792,-0.1000437 0.543281,-0.5648889 0.543281,-0.5648889 0,0 0.123609,-0.1359021 0.220449,-0.2383349 0.09684,-0.1024333 0.360354,-0.3637036 0.360354,-0.3637036 L 32.651833,1.6609321 33.09006,1.3058437 33.347632,1.028435 Z"
       id="path30191"
       sodipodi:nodetypes="cccccccccccccccccccscccccccccccccccccccccccccccccccccccccccccccccccccccccccccccccccccccccccccccccccccccccccccccccccccccscscscccscssssscscssscsssscsscscsccccc" />
    <path
       style="fill:none;fill-opacity:1;stroke:#039714;stroke-width:0.203619;stroke-linecap:round;stroke-linejoin:round;stroke-miterlimit:0;stroke-dasharray:none;stroke-dashoffset:0;stroke-opacity:1;marker-start:url(#marker45397);paint-order:fill markers stroke"
       d="m 23.155571,10.718776 9.446002,3.505201 15.39204,-3e-6 3.293044,10e-7 -0.866631,-24.499326"
       id="path72015"
       sodipodi:nodetypes="ccccc" />
  </g>
  <g
     inkscape:groupmode="layer"
     id="layer3"
     inkscape:label="Layer 3"
     style="display:none;opacity:1">
    <path
       style="fill:#deaa87;fill-opacity:1;stroke:#000000;stroke-width:0.287104;stroke-linecap:round;stroke-linejoin:round;stroke-miterlimit:0;stroke-dasharray:none;stroke-dashoffset:0;stroke-opacity:1;paint-order:fill markers stroke"
       d="m 102.21489,10.285669 2.94131,-4.1180948 0.49867,-1.0920289 1.18778,-1.2518891 1.5261,-1.7771517 1.13324,-1.29793229 1.11939,-1.1910771 1.40267,-1.01842491 1.13686,-0.6541596 1.43595,-0.8881124 c 0,0 1.10418,-0.671903 1.23949,-0.708159 0.1353,-0.03626 0.98612,-0.556744 0.98612,-0.556744 l 0.68707,-0.744026 0.69907,-0.335009 1.01536,-0.299107 c 0,0 0.63467,-0.03706 0.83663,-0.06413 0.20195,-0.02707 1.1052,-0.188311 1.1052,-0.188311 l 1.02595,-0.147574 0.78953,-0.283514 1.13474,-0.434034 1.73628,-0.380808 1.11619,-0.217959 1.27976,-0.103535 1.2066,-0.08418 1.53181,0.180777 1.37419,-0.153057 1.75852,-0.177754 1.47629,-0.05569 1.31277,-0.19089 1.13037,-0.140633 0.75591,-0.06968 0.94789,-0.241416 0.85174,-0.174141 1.17844,-0.0482 1.00217,0.527241 0.93342,0.581562 1.37529,0.90681 1.54546,1.252297 2.30288,2.359354 2.03464,1.9738517 2.80627,2.3561299 1.70889,1.4797845 1.34921,1.3910972 1.24083,1.051752 1.16531,0.9225513 1.73238,1.3334911 2.32379,1.7113216 6.97147,4.0354665 5.62941,2.913894 6.30853,22.94428 -2.8664,0.87553 -1.81546,-0.36867 -2.37978,-1.891924 -2.85774,-2.142042 -5.22907,-2.534283 -3.31007,-2.094178 -1.26056,-0.624743 -4.9479,-0.519049 -4.92132,0.720157 -5.36181,-0.112719 -7.93489,-0.856859 -3.80264,-1.056717 -3.30997,-0.600166 -4.63001,0.283205 -6.01717,-0.204614 -1.33671,-0.175122 -2.5218,-0.508219 -1.32681,-0.799368 -2.0575,-0.660857 -0.42437,-0.388811 -3.00644,-0.124286 -2.76337,-0.597717 -1.47658,-0.680116 -0.33191,-0.650903 0.18297,-0.505098 0.21409,-0.709942 0.15097,-0.825089 0.40705,-1.078272 1.12635,-1.000468 1.33405,-0.84018 1.44306,-0.409478 1.98571,-0.458667 2.33926,-0.174169 1.35718,-0.0254 2.46839,0.201855 1.4038,0.43073 0.36162,0.244255 -0.34005,0.307934 0.34332,-0.307016 1.66917,-0.355775 2.13842,-0.08958 2.41967,0.05425 1.52164,-0.08375 1.7979,-0.08487 2.24224,-0.738051 0.73584,-0.07955 1.03395,-1.30919 0.50831,-1.16425 0.57042,-2.083674 0.54258,-1.672301 0.16686,-1.2268858 0.0866,-0.7336557 -0.24772,1.9408155 -1.04829,-0.7119779 -1.57234,-0.9939423 -1.24243,-0.5518655 -0.8782,-1.073944 -0.76674,-2.274459 0.01,-1.3685781 0.0415,-0.8069285 -0.27452,-0.3337861 -0.36611,-0.2170941 -0.85268,0.3430413 -0.64373,0.3252077 -1.05807,0.3356842 -0.66932,0.1247827 -0.83546,0.2233037 -1.046,0.1095482 -2.31499,-0.3214646 -1.48105,-0.28939 -0.96364,0.1046978 -0.50008,0.00627 -0.28935,-1.2344292 0.28675,1.2467604 -0.28583,0.077425 -0.21185,0.3782227 -0.55883,0.5200003 -0.99908,0.5612837 -0.90153,0.5506482 -0.7868,0.4436843 -1.02575,0.3930083 -0.71493,0.1915649 -0.68948,0.1717559 -0.9421,-0.2317405 0.94298,0.2296565 -1.34076,1.3889277 -0.68292,0.6126492 -1.16787,1.1581537 -1.15219,0.9866434 -0.95101,0.764734 -0.95759,0.499958 -0.88464,0.290167 -1.21462,0.243958 -0.75515,-0.140904 -0.90973,-0.228372 -0.65174,-0.471349 -0.52358,-0.547141 z"
       id="path40158" />
  </g>
  <g
     inkscape:groupmode="layer"
     id="layer4"
     inkscape:label="Layer 4"
     style="display:none">
    <path
       style="fill:none;fill-opacity:1;stroke:#0516ff;stroke-width:0.203619;stroke-linecap:round;stroke-linejoin:round;stroke-miterlimit:0;stroke-dasharray:none;stroke-dashoffset:0;stroke-opacity:1;marker-start:url(#marker45397);paint-order:fill markers stroke"
       d="m 22.575116,8.5524882 3.754637,-5.9194221 5.869657,-6.565732 10.784715,-4.3502413 7.435901,-1.9924438"
       id="path45125"
       sodipodi:nodetypes="ccccc" />
    <path
       style="fill:none;fill-opacity:1;stroke:#ff0505;stroke-width:0.203619;stroke-linecap:round;stroke-linejoin:round;stroke-miterlimit:0;stroke-dasharray:none;stroke-dashoffset:0;stroke-opacity:1;marker-start:url(#marker45397);paint-order:fill markers stroke"
       d="m 103.62148,12.134821 7.79457,-8.0753109 7.62671,-5.0891094 11.65374,-1.5946962 6.85665,-0.00428"
       id="path45405"
       sodipodi:nodetypes="ccccc" />
    <circle
       style="display:inline;fill:#000000;fill-opacity:1;stroke:#000000;stroke-width:0.10181;stroke-linecap:round;stroke-linejoin:round;stroke-miterlimit:0;stroke-dasharray:none;stroke-dashoffset:0;stroke-opacity:1;paint-order:fill markers stroke"
       id="path45530-9"
       cx="51.360577"
       cy="3.0879724"
       r="0.44146374"
       transform="rotate(-15)" />
  </g>
  <g
     inkscape:groupmode="layer"
     id="layer5"
     inkscape:label="Layer 5"
     style="display:inline">
    <path
       id="path2394"
       style="fill:#00aad4;fill-opacity:1;stroke:#000000;stroke-width:1.22665;stroke-linecap:round;stroke-linejoin:round;stroke-miterlimit:0;paint-order:fill markers stroke"
       d="m 188.92115,30.906197 c -9.26721,0.0057 -16.83688,7.38666 -17.05355,16.628526 h -0.15548 v 54.276167 l -55.49866,6.48417 c -0.81955,-0.12053 -10.37685,1.60999 -10.37685,1.60999 0,0 -3.00529,0.86101 -4.5311,2.19537 -1.519527,1.32886 -3.359879,5.15307 -3.359706,8.99398 4.23e-4,9.4029 7.364386,14.58721 16.790496,14.58766 v 0.17095 h 74.18485 v -0.17095 c 9.42674,4.2e-4 17.06896,-7.62228 17.0694,-17.02581 -7e-4,-1.07942 -0.10428,-2.15632 -0.3094,-3.21617 V 51.091195 c 0.20155,-1.041159 0.30511,-2.098819 0.3094,-3.159198 -4.4e-4,-9.403522 -7.64268,-17.026224 -17.0694,-17.0258 z"
       sodipodi:nodetypes="ccccccssccccccccc" />
    <circle
       style="display:inline;fill:#000000;fill-opacity:1;stroke:#000000;stroke-width:0.306289;stroke-linecap:round;stroke-linejoin:round;stroke-miterlimit:0;stroke-dasharray:none;stroke-dashoffset:0;stroke-opacity:1;paint-order:fill markers stroke"
       id="path45530-9-6"
       cx="169.86238"
       cy="95.136917"
       r="1.3281183"
       transform="rotate(-15)" />
  </g>
  <g
     inkscape:groupmode="layer"
     id="layer6"
     inkscape:label="Layer 6"
     style="display:inline">
    <path
       id="path3403-2"
       style="fill:#afdde9;fill-opacity:1;stroke:#000000;stroke-width:1.22515;stroke-linecap:round;stroke-linejoin:round;stroke-miterlimit:0;paint-order:fill markers stroke"
       d="m 130.52563,53.501756 a 11.917028,11.917028 0 0 0 -2.21457,1.473435 l -0.0265,-0.03809 -0.24106,0.278802 a 11.917028,11.917028 0 0 0 -2.01448,2.326303 l -16.63018,19.202363 a 10.292802,10.292802 0 0 0 -1.91389,3.020306 l -9.421463,17.227066 -0.01292,0.0208 a 8.2421733,8.2421733 0 0 0 -0.388278,8.212369 8.2421733,8.2421733 0 0 0 11.098281,3.56023 8.2421733,8.2421733 0 0 0 3.22257,-2.97426 l 13.41021,-16.060369 -0.0607,-0.04175 a 10.292802,10.292802 0 0 0 0.0572,-0.08282 l 16.32257,-14.67478 -0.20304,-0.301388 a 11.917028,11.917028 0 0 0 0.32988,-0.185681 l 0.10903,0.22515 49.64311,-12.472073 a 15.743734,15.743734 0 0 0 4.82085,-1.55182 15.743734,15.743734 0 0 0 6.80111,-21.201186 15.743734,15.743734 0 0 0 -21.20118,-6.801136 15.743734,15.743734 0 0 0 -1.37544,0.810561 L 132.10868,52.82817 a 11.917028,11.917028 0 0 0 -1.58441,0.674182 z" />
    <circle
       style="display:inline;fill:#000000;fill-opacity:1;stroke:#000000;stroke-width:0.306289;stroke-linecap:round;stroke-linejoin:round;stroke-miterlimit:0;stroke-dasharray:none;stroke-dashoffset:0;stroke-opacity:1;paint-order:fill markers stroke"
       id="path45530-9-6-9"
       cx="169.86238"
       cy="95.136917"
       r="1.3281183"
       transform="rotate(-15)" />
    <path
       style="fill:#00aad4;fill-opacity:1;stroke:#000000;stroke-width:1.22515;stroke-linecap:round;stroke-linejoin:round;stroke-miterlimit:0;stroke-dasharray:1.22515, 2.45031;stroke-dashoffset:0;paint-order:fill markers stroke"
       d="m 98.238464,121.99885 v 38.08219"
       id="path11118" />
    <path
       style="fill:#00aad4;fill-opacity:1;stroke:#000000;stroke-width:1.2117;stroke-linecap:round;stroke-linejoin:round;stroke-miterlimit:0;stroke-dasharray:1.2117, 2.4234;stroke-dashoffset:0;paint-order:fill markers stroke"
       d="M 188.80592,47.982962 V 160.0585"
       id="path11120" />
    <path
       style="fill:#00aad4;fill-opacity:1;stroke:#000000;stroke-width:1.22515;stroke-linecap:round;stroke-linejoin:round;stroke-miterlimit:0;stroke-dasharray:none;stroke-dashoffset:0;paint-order:fill markers stroke"
       d="M 98.867293,155.61041 H 188.5297"
       id="path11235" />
    <text
       xml:space="preserve"
       style="font-size:9.72464px;fill:#000000;fill-opacity:1;stroke:none;stroke-width:1.22515;stroke-linecap:round;stroke-linejoin:round;stroke-miterlimit:0;stroke-dasharray:none;stroke-dashoffset:0;paint-order:fill markers stroke"
       x="128.47296"
       y="150.71434"
       id="text13751"><tspan
         sodipodi:role="line"
         id="tspan13749"
         style="fill:#000000;fill-opacity:1;stroke:none;stroke-width:1.22515"
         x="128.47296"
         y="150.71434">60 mm</tspan></text>
  </g>
</svg>
